<svg version="1.1" xmlns="http://www.w3.org/2000/svg" viewBox="0 0 NaN NaN" width="NaN" height="NaN">
  <!-- svg-source:excalidraw -->
  
  <defs>
    <style>
      @font-face {
        font-family: "Virgil";
        src: url("https://excalidraw.com/Virgil.woff2");
      }
      @font-face {
        font-family: "Cascadia";
        src: url("https://excalidraw.com/Cascadia.woff2");
      }
    </style>
  </defs>
  <rect x="0" y="0" width="NaN" height="NaN" fill="#ffffff"></rect><g stroke-linecap="round" transform="translate(0 0) rotate(0 557.3300606863841 417.4970790318081)"><path d="M208.75 0 M208.75 0 C351.7 -1.25, 495.35 -1.62, 905.91 0 M905.91 0 C1045.46 0.44, 1114.6 67.77, 1114.66 208.75 M1114.66 208.75 C1115.42 295.13, 1116.56 380.28, 1114.66 626.25 M1114.66 626.25 C1115.3 763.84, 1043.61 835.68, 905.91 834.99 M905.91 834.99 C633.54 837.75, 360.27 837.01, 208.75 834.99 M208.75 834.99 C68.85 836.02, -1.01 763.81, 0 626.25 M0 626.25 C-0.7 511.24, 0.19 394.37, 0 208.75 M0 208.75 C-1.78 69.49, 70.71 1.03, 208.75 0" stroke="#a61e4d" stroke-width="2.5" fill="none" stroke-dasharray="8 10"></path></g><g stroke-linecap="round" transform="translate(0 0) rotate(0 831.4944131033761 449.43810599190846)"><path d="M0.04 -0.67 C398.09 -1.59, 794.83 -0.55, 1662.92 -0.73 M1663.28 -0.17 C1661.89 245.95, 1662.26 492.75, 1662.65 898.22 M1662.47 898.65 C1191.38 895.31, 721.25 896.36, -0.35 898.28 M-0.65 899.36 C-3.72 664.54, -3.11 430.84, -0.36 0.28" stroke="#000000" stroke-width="1.5" fill="none" stroke-dasharray="8 9"></path></g><g stroke-linecap="round" transform="translate(0 0) rotate(0 67.5 70.607421875)"><path d="M15.08 27.68 C15.08 27.68, 15.08 27.68, 15.08 27.68 M15.08 27.68 C15.08 27.68, 15.08 27.68, 15.08 27.68 M6.32 44.31 C18.61 29.21, 27.25 18.42, 36.33 5.72 M8.29 43.15 C19.13 30.15, 30.15 16.69, 38.38 7.66 M-0.92 55.98 C9.38 45.05, 21.88 34.26, 45.34 5.94 M0.68 56.27 C16.59 36.71, 32.55 18.46, 44.56 6.63 M-0.58 61.32 C18.45 38.14, 40.45 17.44, 51.59 4.81 M2.1 61.89 C13.96 46.59, 27.46 32.64, 51.96 2.91 M0.82 66.8 C13.08 52.99, 25.28 39.31, 56.74 1.38 M2.34 67.7 C17.41 47.85, 34.24 31.2, 59.55 2.47 M3.64 72.25 C15.16 57.2, 28.97 40.74, 65.9 -1.55 M2.27 74.02 C27.36 43.76, 51.55 15.85, 66.29 -0.96 M2.06 79.01 C19.12 57.64, 39.29 38.52, 72.51 0.47 M2.58 79.19 C20.95 55.75, 40.86 34.34, 69.8 1.24 M2.18 85.78 C18.29 63.69, 38.83 45.25, 76.27 -0.12 M3.71 84.68 C26.38 58.55, 50.39 30.08, 74.11 2.03 M5.44 87.03 C23.83 67.53, 40.08 45.39, 78.8 1 M5.12 88.55 C24.73 65.15, 46.3 39.18, 79.1 1.85 M6.87 93.4 C33.77 58.88, 61.25 26.79, 85 4.19 M5.28 93.13 C36.39 58.02, 67.13 23.81, 83.73 3.93 M9.75 94.26 C28.09 72.92, 48.82 52.53, 89.2 5.68 M8.16 96.74 C29.51 73.16, 48.1 48.8, 87.93 5.34 M11.81 102.13 C42.25 61.81, 72.44 26.51, 93.28 5.45 M9.31 101.31 C27.25 81.92, 43.39 61.27, 92.62 6.02 M11.31 104.02 C42.53 69.14, 73.18 36.53, 96.8 7.15 M11.67 104.91 C42.52 68.22, 74.6 32.33, 97.56 7.9 M14.52 108.36 C29.02 90.48, 48.82 68.02, 97.8 11.43 M12.91 107.82 C45.29 72.18, 76.35 36.63, 100.06 9.44 M14.52 112.08 C39.29 85.81, 61.56 62.19, 102.89 11.31 M16.02 112.84 C37.9 87.28, 60.19 61.45, 102.76 12.17 M17.33 116.47 C40.03 88.93, 66.12 59.7, 105.39 16.57 M17.24 116.38 C35.03 95.01, 52.5 74.9, 105.72 14.28 M21.29 117.6 C45.47 93.2, 68.25 64.13, 109.48 15.4 M19.32 119.97 C39.55 99.89, 56.94 78.31, 110.27 17.4 M23.33 122.7 C49.52 88.36, 80.01 58.14, 113.65 21.24 M23.52 121.87 C57.22 82.87, 91.82 44.86, 112.34 18.73 M25.64 124.73 C52.87 93.03, 80.16 61.58, 116.79 20.16 M26.12 124.88 C53.36 90.65, 82.67 60.33, 114.35 21.53 M29.86 126.8 C61.63 89.98, 96.33 49.78, 117.71 25.76 M30.46 125.87 C55.95 96.57, 82.57 65.21, 118.47 25.2 M31.15 129.54 C57.36 99.67, 80.15 70.32, 121.85 26.26 M32.79 128.35 C62.97 93.8, 92.8 61.38, 121.31 27.62 M37.7 129.95 C54.43 109.72, 71.51 90.89, 122.18 29.9 M35.55 132.58 C63.45 98.03, 93.62 64.84, 122.42 31.71 M37.49 132.55 C66.03 99.6, 96.87 65.11, 125.19 36.31 M38.05 133.8 C62.9 107.69, 86.37 79.75, 124.28 35.94 M40.42 137.24 C64.18 109.06, 88.16 81.97, 125.12 40.86 M42.32 137.36 C70.55 103.72, 100.08 71.67, 126.22 39.96 M45.78 137.69 C65.84 118.45, 84.68 94.89, 128.06 44.32 M46.41 138.26 C76.57 102.15, 106.53 68.66, 128.39 43.36 M53.03 136.94 C80.63 104.68, 110.82 71.6, 131.39 47.75 M51.02 137.97 C80.87 104.59, 108.97 71.22, 131 47.79 M57.32 137.82 C78.89 114.38, 101.57 89.04, 133.94 51.79 M54.78 139.97 C76.24 115.12, 97.7 90.3, 132.27 51.44 M58.14 139.79 C85.73 109.84, 115.04 80.13, 136.04 54.89 M60.78 139.85 C89.34 106.3, 118.28 74.51, 134.34 54.45 M63.58 141.05 C85.79 118.95, 105.38 92.33, 133.78 61.63 M64.56 140.57 C87.15 114.99, 109.85 88.69, 135.3 60.4 M70.41 140.7 C86.4 123.7, 99.06 106.94, 135.62 66.57 M70.07 141.83 C87.91 120.34, 109.68 96.74, 135.62 67.38 M76.79 139.1 C90.26 125.79, 105.62 108.24, 134 74.18 M76.17 139.57 C91.97 123.05, 106.98 104.86, 135.6 73.09 M81.28 138.51 C97.79 121.64, 116.55 101.32, 136.06 77.45 M83.42 139.87 C101.5 117.2, 121.94 94.17, 135.88 78.62 M87.38 138.93 C99.75 125.8, 110.6 112.49, 137.14 82.49 M88.51 137.93 C102.53 121.24, 117.16 104.73, 136.72 84.28 M93.13 135.27 C108.91 119.59, 127.06 102.09, 135.49 87.67 M95.6 136.41 C111.89 117.33, 127.9 100.3, 136.62 87.89 M101.24 137.19 C111.41 122.49, 122.76 111.6, 128.66 102.81 M100.25 136.5 C109.59 127.65, 116.84 118.5, 130.4 103.19" stroke="#e64980" stroke-width="0.5" fill="none"></path><path d="M95.78 6.15 C104.57 9.5, 114.18 18.52, 120.26 26.38 C126.34 34.25, 130 43.37, 132.27 53.33 C134.54 63.29, 135.82 76.1, 133.88 86.15 C131.94 96.21, 126.66 105.63, 120.63 113.66 C114.59 121.68, 106.53 129.89, 97.68 134.32 C88.83 138.75, 77.27 140.18, 67.54 140.25 C57.82 140.32, 47.96 138.88, 39.33 134.74 C30.71 130.6, 21.96 123.41, 15.81 115.41 C9.66 107.41, 4.97 96.62, 2.43 86.74 C-0.11 76.85, -1.57 65.97, 0.57 56.1 C2.7 46.23, 9.13 35.66, 15.24 27.5 C21.35 19.35, 28.8 11.88, 37.22 7.16 C45.63 2.44, 55.12 -1.38, 65.74 -0.82 C76.37 -0.26, 94.18 7.87, 100.98 10.52 C107.79 13.17, 107.13 14.38, 106.56 15.08 M52.06 0.52 C60.83 -2.56, 72.45 0.43, 81.94 3.04 C91.42 5.65, 101.27 10.16, 108.96 16.19 C116.65 22.22, 123.86 30.28, 128.09 39.24 C132.31 48.2, 134.39 59.85, 134.3 69.93 C134.21 80.02, 131.89 90.67, 127.54 99.73 C123.19 108.8, 115.95 117.76, 108.22 124.31 C100.48 130.86, 90.34 136.38, 81.14 139.02 C71.94 141.67, 62.11 142.37, 53.02 140.17 C43.94 137.96, 34.33 132.16, 26.63 125.79 C18.93 119.43, 11.14 111.18, 6.82 101.98 C2.5 92.78, 0.83 80.83, 0.72 70.6 C0.6 60.37, 2.16 49.86, 6.16 40.62 C10.15 31.39, 17.21 21.52, 24.69 15.21 C32.16 8.9, 46.59 4.85, 51.01 2.77 C55.43 0.69, 50.52 1.61, 51.2 2.73" stroke="#000000" stroke-width="1" fill="none"></path></g><g transform="translate(0 0) rotate(0 62.5 22.5)"><text x="62.5" y="32" font-family="Virgil, Segoe UI Emoji" font-size="36px" fill="#000000" text-anchor="middle" style="white-space: pre;" direction="ltr">S3</text></g><g stroke-linecap="round" transform="translate(0 0) rotate(0 478.70489501953125 127.8760986328125)"><path d="M63.94 0 M63.94 0 C256.39 0.18, 448.43 -0.67, 893.47 0 M893.47 0 C934.72 0.83, 956.94 21.32, 957.41 63.94 M957.41 63.94 C958.3 90.41, 958.28 121.43, 957.41 191.81 M957.41 191.81 C956.93 233.3, 936.85 256.04, 893.47 255.75 M893.47 255.75 C667.13 252.74, 439.71 253.5, 63.94 255.75 M63.94 255.75 C23.2 254.44, 1.8 232.65, 0 191.81 M0 191.81 C-3.21 163.69, 0.21 139.8, 0 63.94 M0 63.94 C-0.81 21.38, 21.52 0, 63.94 0" stroke="#000000" stroke-width="1.5" fill="none" stroke-dasharray="1.5 7"></path></g><g stroke-linecap="round" transform="translate(0 0) rotate(0 63.86854553222656 67.30543518066406)"><path d="M0 0 C0 0, 0 0, 0 0 M0 0 C0 0, 0 0, 0 0 M0.41 6.4 C0.45 4.61, 2.61 4.31, 5.05 0.21 M0.11 6.12 C1.39 5.2, 2.64 3.14, 5.32 0.1 M0.27 11.83 C1.79 8.01, 4.58 7.06, 12.07 -1.08 M0.67 12.28 C2.75 7.98, 5.94 5.56, 9.9 0.52 M0.14 19.6 C4.9 11.34, 9.4 6.3, 13.7 0.04 M0.26 18.75 C5.2 13.08, 8.33 8.3, 16.03 0.81 M0.6 25.08 C7.22 18.89, 8.7 13.96, 21.45 -1.7 M1.03 23.49 C8.24 14.76, 15.7 5.7, 21.81 -0.73 M-0.72 29.19 C6.9 24.26, 9.43 17.01, 25.23 0.27 M0.93 29.54 C9.31 19.28, 18.09 9.89, 25.36 1.12 M-1.57 37.27 C10.67 24.61, 20.1 14.05, 31.03 -0.73 M0.13 36.08 C11.78 23.15, 23.92 8.21, 31.45 0.47 M1.09 41.18 C10.34 29.85, 22.53 16.34, 38.13 1.02 M1.12 41.84 C14.88 26.08, 27.95 8.8, 35.94 -0.49 M-0.73 49.43 C15.63 33.62, 29.36 13.16, 42.5 1.5 M0.67 48.36 C12.97 33.3, 26.65 19.65, 43.05 -0.42 M0.64 53.78 C16.76 35.32, 30.35 19.61, 45.64 0.84 M0.37 53.85 C9.18 43.68, 19.88 32.3, 47.98 0.24 M1.44 59.11 C18.23 38.98, 39.73 16.81, 53.99 1.14 M-0.66 60.22 C20.48 39.39, 38.42 17.29, 54.14 0.31 M1.16 66.11 C17.68 46.28, 37.58 22.95, 59.79 0.44 M0.69 66.92 C13.05 51.79, 27.01 35.3, 57.8 0.98 M-1.26 73.29 C15.43 54.18, 31.87 35.2, 64.44 -1.51 M-0.42 72.21 C19.51 52.31, 37.91 30.76, 63.33 -1.2 M0.67 79.23 C17.65 55.37, 39.59 36, 67.43 -1.27 M-0.88 78.54 C24.89 51.53, 48.93 22.26, 67.82 0.82 M-0.24 85.12 C20.76 63.27, 40.58 40.58, 73.63 -1.93 M0.93 84.29 C26 54.5, 52.38 25.01, 74.33 -0.41 M0 92.67 C32.76 54.6, 62.57 21.85, 78.23 0.83 M-0.17 90.89 C23.13 64.58, 46.72 37.3, 78.53 0.25 M-0.73 98.72 C31.1 62.31, 59.31 32.09, 86.11 0.58 M0.36 98.58 C30.53 62.63, 59.63 29.44, 85.93 -0.39 M1.49 105.36 C25.67 73.84, 52.78 46.63, 88.67 2.02 M0.76 103.77 C18.2 83.65, 38.2 60.75, 90.53 -0.83 M0.8 110.1 C31.1 75.81, 59.44 40.99, 95.27 -1.12 M-1.09 110.34 C24.24 81.23, 49.84 52.75, 96.04 0.21 M0.26 116.44 C40.21 69.7, 76.93 26.17, 102.04 -0.23 M0.91 115.42 C28.3 82.09, 58.7 48.16, 100.52 0.87 M0.74 123.76 C39.62 75.47, 75.61 32.55, 107.3 -1.94 M-0.27 122.5 C39.36 76.39, 78.29 29.89, 105.63 -0.85 M-0.39 129.97 C39.67 82.96, 77.71 38.33, 112.44 1.75 M-0.25 129.21 C42.09 77.37, 85.89 28.07, 111.27 0.06 M-1.06 133.6 C38.28 89.52, 79.54 42.48, 116.57 0.12 M0.74 134.64 C38.13 90.27, 74.29 47.68, 116.14 1.34 M4.23 136.94 C50.5 83.1, 96.06 30.02, 120.78 1.81 M2.42 137.65 C48.02 84.15, 94.65 33.23, 121.67 0.85 M9.93 138.67 C36.46 107.01, 64.02 76.86, 128.2 1 M7.8 136.69 C42.26 97.92, 77.52 59.11, 126.05 -0.15 M12.29 135.76 C59.24 85.89, 104.63 29.22, 128.83 2.24 M13.81 136.9 C59.38 84.39, 105.37 31.26, 130.73 3.04 M17.96 135.29 C54.88 95.77, 87.06 56.67, 130.96 7.38 M19.78 137.1 C61.41 88.02, 104.34 38.41, 129.76 8.69 M22.29 135.37 C47.45 111.29, 70.05 84.36, 132.56 12.83 M23.45 137.87 C63.58 89.07, 105.48 41.93, 130.93 15.09 M28.68 134.96 C68.21 93.27, 105.56 48.21, 130.22 20.57 M30.23 136.67 C58.01 105.84, 85.33 74.38, 130.57 20.73 M33.44 135.83 C67.2 102.48, 95.85 66.43, 129.2 28.93 M33.82 136.81 C68.73 96.69, 103.93 56.56, 129.33 26.28 M41.19 136.34 C74.33 100.89, 105.5 61.38, 131.53 30.78 M39.44 136.61 C71.22 99.35, 102.72 63.63, 130.21 31.97 M45.74 137.4 C62.13 115.98, 83.38 93.71, 132.22 39.63 M44.49 136.39 C78.17 100.98, 108.7 65.78, 130.48 38.84 M49.42 136.29 C70.53 112.97, 90.3 91.23, 129.96 44.22 M49.78 137.54 C79.07 105.39, 106.1 71.69, 130.23 44.6 M56.01 136.54 C83.42 105.71, 112.33 72.54, 131.96 50.47 M56.16 137.65 C77.73 110.8, 98.74 87.05, 131.07 50.67 M62.08 137.83 C88.15 107.17, 112.07 78.38, 128.73 56.02 M61.74 137.49 C87.11 107.86, 111.99 78.64, 130.63 57.98 M65.88 137.86 C87.2 113.3, 109.05 87.9, 130.19 64.43 M66.59 138.1 C83.19 118.7, 98.48 98.88, 130.55 62.31 M70.72 138.2 C94.86 112.89, 115.64 86.89, 129.85 71.25 M71.88 135.86 C83.43 122.66, 96.61 108.02, 130.45 69.6 M77.81 138.19 C97.94 114.36, 114.64 94.69, 131.52 74.67 M76.63 137.59 C87.27 123.03, 100.5 110.51, 130.45 75.74 M81.69 136.81 C98.26 116.18, 115.11 98.15, 130.19 81.4 M82.85 137.51 C94.13 123.61, 105.86 108.74, 129.87 81.64 M87.06 138.54 C101.85 119.65, 119.6 99.83, 130.72 89.3 M88.25 136.41 C104.78 117.4, 121.99 98.1, 129.74 87.06 M92.16 135.25 C102.03 128.37, 110.02 120.05, 132.05 93.44 M93.41 136.66 C107.25 120.59, 120.51 103.64, 130.81 93.9 M97.68 136.1 C110.59 123.76, 122.26 111.06, 131.31 100.34 M98.5 137.27 C106.19 129.04, 112.15 120.05, 129.46 99.53 M101.45 138.08 C110.99 128.47, 119.13 118.99, 130.57 106.49 M103.76 137.71 C110.31 130.75, 117.08 123, 130.29 106.6 M110.58 136.24 C114.56 131.15, 120.05 125.26, 129.68 112.28 M109.52 137.25 C114.41 132.71, 118.94 127.15, 130.77 112.1 M113.65 137.76 C116.95 132.57, 122.93 127.87, 129.04 116.61 M114.13 138.22 C117.38 132.69, 120.15 129.01, 129.77 119.14 M119.43 136.61 C122.26 133.06, 125.79 127.9, 129.83 123.19 M118.68 137.72 C122.1 132.96, 126.27 129.55, 131.42 124.3 M125.01 138.17 C127.31 135.47, 127.59 132.43, 129.98 130.21 M124.65 137.35 C125.9 135.96, 127.14 134.31, 130.08 130.76" stroke="#fab005" stroke-width="0.5" fill="none"></path><path d="M-0.19 0.13 C35.65 1.67, 72.3 1.75, 129.24 0.47 M128.83 0.52 C128.57 26.17, 125.67 57.1, 128.87 134.46 M125.78 136.06 C83.37 135.01, 34.95 136.94, 1.57 136.15 M-1.68 135.87 C-0.87 88.83, -0.2 45.57, 0.66 -0.1" stroke="#000000" stroke-width="1.5" fill="none" stroke-dasharray="1.5 7"></path></g><g stroke-linecap="round" transform="translate(0 0) rotate(0 66.22390747070312 68.07440185546875)"><path d="M13.2 27.38 C13.2 27.38, 13.2 27.38, 13.2 27.38 M13.2 27.38 C13.2 27.38, 13.2 27.38, 13.2 27.38 M5.85 38.83 C15.21 32.36, 22.57 23.14, 35.25 10.97 M6.95 40.39 C14.76 31.75, 21.4 26.51, 34.42 9.91 M0.93 51.2 C15.33 37.83, 26.09 25.92, 39.17 8.68 M1.74 51.69 C12.63 39.91, 22.07 28.17, 39.71 9.52 M3.52 56.35 C15.96 42.12, 28.44 28.42, 43.92 8.58 M2.45 57.89 C14.17 45.9, 24.39 32.24, 44.23 8.62 M3.47 60.93 C13.7 49.75, 28.35 33.78, 50.76 8.11 M2.77 63.63 C22.27 42.44, 39.58 20.5, 52.85 6.59 M3.45 69.32 C17.03 54.8, 29.86 39.05, 57.45 5.89 M2.62 68.91 C15.23 54.46, 28.06 38.65, 58.96 5.95 M5 76.61 C22.35 52.64, 45.09 28.32, 66.8 3.06 M3.21 73.87 C19.16 56.57, 34.15 39.14, 66.22 3.5 M5.04 82.41 C17.89 63.51, 36.86 44.79, 71.93 4.46 M4.9 80.49 C16.66 64.01, 31.1 50.14, 70.96 3.35 M6.43 86.02 C27.12 60.87, 52.19 32.3, 77.34 2.74 M4.84 85.48 C26.68 62.72, 45.79 38.73, 74.49 4.77 M6.48 91.79 C33.97 58.55, 60.91 27.72, 79.58 4.17 M6.72 89.49 C27.55 66.49, 48.94 42.61, 80.91 5.88 M8.88 95.75 C36.17 59.99, 66.74 29.6, 84.45 5.88 M7.86 93.58 C33.37 65.34, 58.18 35.73, 85.54 6.69 M12.17 98.48 C29.08 71.7, 51.28 50.35, 88.11 7.9 M10.91 97.86 C37.03 66.88, 62.64 36.36, 89.21 6.9 M13.69 103.73 C40 70.14, 68.54 36.98, 97.09 7.8 M12.93 101.95 C42.46 66.21, 74.46 29.36, 95.4 6.43 M13.38 104.07 C35.88 82.08, 55.35 58.13, 98.12 9.13 M14.42 106.41 C38.22 75.7, 63.88 47.72, 99.34 9.62 M15.05 109.95 C35.42 84.62, 56.6 62.47, 103.22 12.92 M15.76 109.69 C38.04 83.94, 62.92 56.23, 102.26 10.56 M18.88 115.17 C41.75 87.91, 66.17 60.71, 105.07 13.67 M16.9 113.3 C37.72 91.16, 58.68 66.71, 103.92 14.88 M19.28 116.68 C55.67 78.2, 85.34 39.56, 107.46 18.41 M20.43 115.49 C42.83 89.73, 64.56 65.85, 108.26 16.65 M22.23 120.23 C49.81 86.94, 77.71 57.64, 109.88 20.1 M24.03 118.73 C52.09 85.89, 79.65 53.38, 111.19 17.57 M25.62 120.77 C51.1 94.39, 73.81 70.18, 112.7 22.77 M28.13 119.87 C58.44 84.43, 90.4 48.66, 114.96 21.91 M28.63 124.02 C66.57 82.75, 101.15 43.9, 117.06 23.09 M30.33 123.56 C51 99.84, 71.02 76.97, 117.22 23.94 M32.15 127.4 C62.81 93.05, 90.75 61.51, 122.04 27.57 M33.14 124.98 C56.82 98.62, 80.47 71.3, 119.39 26.89 M36.74 128.36 C56.42 106.22, 72.02 88.01, 119.96 31.38 M37.01 127.97 C66.16 93.76, 96.87 58.6, 121.14 29.61 M40.46 128.79 C66.22 101.49, 91.18 72.97, 124.77 35.23 M39.44 131.28 C61.16 106.92, 82.98 83.73, 123.98 33.25 M44.07 131.13 C63.05 109.01, 83.7 85.87, 125.43 39 M45.32 132.46 C78.13 94.73, 109.33 57.45, 125.8 38.75 M48.29 131.98 C76.01 102.55, 101.48 74.82, 126.98 41.91 M49.41 133.33 C75.97 99.51, 105.69 67.73, 127.18 42.72 M54.31 135.02 C72.36 110.91, 92.16 86.95, 127.85 47.56 M53.96 134.65 C80.97 102.26, 108.38 70.69, 129.8 46.4 M58.31 134.57 C74.58 116.36, 89.95 95.47, 132.97 48.62 M58.54 135.55 C80.21 108.43, 101.64 82.65, 130.86 50.12 M63.37 137.8 C79.06 118.43, 94.15 96.19, 135.1 51.95 M61.03 135.5 C88.05 106.33, 113.74 76.15, 133.46 54.19 M67.34 138.74 C78.58 120.99, 93.86 106.76, 132.62 58.45 M66.73 136.2 C90.77 108.88, 116.97 78.94, 133.68 60.64 M70.68 136.54 C83.7 120.24, 99.49 105.25, 133.35 64.69 M71.38 137.56 C85.99 120.2, 99.57 103.29, 133.58 66.61 M78.35 135.2 C99.25 112.87, 119.02 90.19, 134.58 74.04 M76.22 137.35 C92.61 118.91, 108.7 99.36, 132.34 71.3 M82.41 135.84 C99.29 119.55, 114.57 103.94, 133.48 79.29 M83.82 135.2 C99.47 116.53, 114.12 99.69, 133.93 78.45 M89.85 134.23 C107.75 114.89, 125.4 95.62, 133.72 82.81 M91.02 133.95 C105.94 115.64, 120.03 98.83, 132.91 84.21 M98.43 130.93 C108.61 119.19, 118.99 107.81, 129.37 94.65 M98.06 131.67 C105.95 123.39, 112.98 114.16, 129.48 95.16" stroke="#868e96" stroke-width="0.5" fill="none"></path><path d="M35.93 7.97 C43.4 3.06, 54.17 1.3, 63.81 0.85 C73.45 0.4, 84.8 1.43, 93.77 5.25 C102.74 9.07, 111.5 16.03, 117.64 23.75 C123.79 31.47, 128.4 41.95, 130.62 51.56 C132.85 61.17, 132.85 71.87, 130.99 81.42 C129.13 90.97, 125.29 100.83, 119.46 108.84 C113.63 116.86, 104.55 124.9, 96.02 129.51 C87.48 134.11, 77.7 136.53, 68.24 136.5 C58.79 136.46, 48.07 133.33, 39.26 129.28 C30.46 125.23, 21.64 119.67, 15.42 112.18 C9.2 104.68, 4.37 93.82, 1.95 84.3 C-0.47 74.78, -1.01 64.56, 0.89 55.04 C2.8 45.52, 5.97 35.68, 13.37 27.19 C20.77 18.69, 38.53 8.19, 45.31 4.05 C52.08 -0.1, 53.75 1.21, 54.02 2.33 M37.54 6.46 C45.22 1.46, 56.66 1.49, 65.85 1.48 C75.03 1.48, 84.04 2.84, 92.64 6.43 C101.24 10.02, 111.3 15.74, 117.45 23.02 C123.59 30.3, 127.41 40.16, 129.5 50.1 C131.59 60.03, 131.93 72.99, 129.97 82.63 C128.01 92.27, 123.45 100.19, 117.75 107.94 C112.05 115.69, 104.1 124.23, 95.78 129.14 C87.45 134.06, 77.47 137.45, 67.82 137.44 C58.16 137.43, 46.62 133.17, 37.87 129.08 C29.12 124.98, 21.29 120.36, 15.33 112.88 C9.38 105.41, 4.5 93.79, 2.13 84.23 C-0.24 74.67, -0.67 65.17, 1.1 55.54 C2.87 45.91, 7.01 34.4, 12.74 26.44 C18.46 18.48, 31.18 10.62, 35.44 7.78 C39.7 4.94, 37.76 8.37, 38.31 9.4" stroke="#000000" stroke-width="1" fill="none"></path></g><g transform="translate(0 0) rotate(0 61 22.5)"><text x="61" y="32" font-family="Virgil, Segoe UI Emoji" font-size="36px" fill="#000000" text-anchor="middle" style="white-space: pre;" direction="ltr">User</text></g><g stroke-linecap="round" transform="translate(0 0) rotate(0 112.37667846679688 107.96142578125)"><path d="M-1.43 0.14 C48 -0.88, 94.09 -1.46, 225.2 0.32 M223.79 0.94 C222.54 47.3, 222.86 91.74, 225.5 215.28 M225.9 216.92 C178.14 216.18, 130.94 216.56, 0.79 216.61 M0.2 214.74 C-1.59 148.79, -1.31 86.03, 0.57 0.94" stroke="#000000" stroke-width="1.5" fill="none" stroke-dasharray="8 9"></path></g><g stroke-linecap="round" transform="translate(0 0) rotate(0 69.22811889648438 58.541595458984375)"><path d="M28.36 1.46 L117.15 2.05 L122.09 1.94 L130 5.32 L136.63 16.13 L137.93 28.72 L138.05 94.76 L137.44 99.89 L129.85 109.84 L123.97 116.8 L108.9 118.18 L21.73 117.73 L16.51 114.6 L5.76 109.3 L6.04 107.44 L-1.33 95.84 L1.31 20.54 L2.84 12.51 L8.85 8.14 L17.8 2.93 L31.24 1.08" stroke="none" stroke-width="0" fill="#fab005"></path><path d="M29.27 0 M29.27 0 C56.7 -0.02, 81 -0.3, 109.19 0 M29.27 0 C56.84 -0.31, 83.91 -0.95, 109.19 0 M109.19 0 C129.25 -1.88, 139.3 9.35, 138.46 29.27 M109.19 0 C130.05 -1.67, 136.76 10.66, 138.46 29.27 M138.46 29.27 C138.81 44.73, 140.42 63.58, 138.46 87.81 M138.46 29.27 C138.91 48.25, 138.05 69.21, 138.46 87.81 M138.46 87.81 C137.41 108.33, 130.59 118.45, 109.19 117.08 M138.46 87.81 C138.03 109.3, 128.42 118.21, 109.19 117.08 M109.19 117.08 C83.62 114.74, 58.3 117.3, 29.27 117.08 M109.19 117.08 C90.88 118.11, 70.62 117.34, 29.27 117.08 M29.27 117.08 C11.67 117.27, -0.1 106.45, 0 87.81 M29.27 117.08 C9.36 118.91, 0.99 105.21, 0 87.81 M0 87.81 C0.58 77.55, -0.34 64.72, 0 29.27 M0 87.81 C-0.55 68.47, 0.15 50.92, 0 29.27 M0 29.27 C0.51 8.03, 8.44 0.5, 29.27 0 M0 29.27 C-1.98 7.85, 10.47 0.58, 29.27 0" stroke="#000000" stroke-width="1" fill="none"></path></g><g transform="translate(0 0) rotate(0 64 22.5)"><text x="64" y="32" font-family="Virgil, Segoe UI Emoji" font-size="36px" fill="#000000" text-anchor="middle" style="white-space: pre;" direction="ltr">EC2</text></g><g transform="translate(0 0) rotate(0 109.5 12.5)"><text x="0" y="18" font-family="Virgil, Segoe UI Emoji" font-size="20px" fill="#000000" text-anchor="start" style="white-space: pre;" direction="ltr">Amazon EC2 Instance</text></g><g transform="translate(0 0) rotate(0 88 17.5)"><text x="0" y="25" font-family="Virgil, Segoe UI Emoji" font-size="28px" fill="#a61e4d" text-anchor="start" style="white-space: pre;" direction="ltr">public subnet</text></g><g transform="translate(0 0) rotate(0 21 17.5)"><text x="0" y="25" font-family="Virgil, Segoe UI Emoji" font-size="28px" fill="#1864ab" text-anchor="start" style="white-space: pre;" direction="ltr">AZ</text></g><g transform="translate(0 0) rotate(0 42 17.5)"><text x="0" y="25" font-family="Virgil, Segoe UI Emoji" font-size="28px" fill="#1864ab" text-anchor="start" style="white-space: pre;" direction="ltr">Region</text></g><g stroke-linecap="round" transform="translate(0 0) rotate(0 196.40457153320312 107.96142578125)"><path d="M-0.97 -1.15 C126.27 2.27, 253.45 1.75, 392.2 0.16 M393.72 1.63 C392.44 63.4, 393.08 128.86, 392.21 215.66 M393.17 215.46 C288.78 215.83, 184.08 216, -0.77 215.42 M-1.65 215.35 C-0.81 163.82, 1.9 113.1, -0.79 -0.63" stroke="#000000" stroke-width="1.5" fill="none" stroke-dasharray="8 9"></path></g><g stroke-linecap="round" transform="translate(0 0) rotate(0 55.5 59)"><path d="M60.3 0.74 C68.66 0.66, 77.5 4.32, 84.58 9.12 C91.67 13.92, 98.5 21.89, 102.81 29.54 C107.12 37.19, 109.85 46, 110.44 55.04 C111.03 64.08, 109.76 75.33, 106.37 83.78 C102.97 92.23, 96.78 100.14, 90.05 105.74 C83.33 111.34, 74.74 115.66, 66.02 117.39 C57.3 119.11, 46.22 119, 37.72 116.11 C29.23 113.22, 21.06 106.86, 15.05 100.05 C9.04 93.24, 4.07 83.91, 1.65 75.27 C-0.77 66.63, -1.21 57.15, 0.52 48.21 C2.25 39.28, 6.67 28.95, 12.02 21.67 C17.36 14.4, 23.58 8.08, 32.57 4.57 C41.56 1.07, 59.46 0.81, 65.95 0.66 C72.44 0.51, 71.84 2.74, 71.51 3.67 M49.44 0.1 C57.22 -1.44, 67.02 1.36, 75.08 5.01 C83.14 8.67, 92.1 15.24, 97.81 22.02 C103.51 28.81, 107.37 36.84, 109.31 45.73 C111.24 54.62, 111.53 66.45, 109.43 75.37 C107.33 84.29, 102.74 92.58, 96.69 99.24 C90.64 105.91, 81.16 112.09, 73.11 115.35 C65.06 118.62, 56.8 120.24, 48.39 118.81 C39.99 117.38, 29.91 112.28, 22.67 106.76 C15.43 101.23, 8.94 93.98, 4.94 85.66 C0.95 77.34, -1.46 65.86, -1.3 56.84 C-1.15 47.81, 1.42 39.41, 5.88 31.5 C10.34 23.59, 18.16 14.72, 25.46 9.38 C32.76 4.04, 45.64 0.69, 49.68 -0.53 C53.72 -1.75, 49.57 0.93, 49.7 2.07" stroke="none" stroke-width="0" fill="#228be6"></path><path d="M62.92 0.41 C71.11 0.76, 81.78 5.18, 88.8 10.7 C95.82 16.23, 101.49 25.24, 105.02 33.55 C108.56 41.85, 110.06 51.52, 110.01 60.54 C109.95 69.55, 108.76 79.75, 104.69 87.63 C100.62 95.51, 92.85 102.78, 85.6 107.81 C78.35 112.83, 69.85 116.7, 61.2 117.78 C52.56 118.86, 41.83 117.95, 33.73 114.32 C25.64 110.68, 17.93 103, 12.62 95.97 C7.3 88.94, 3.68 80.89, 1.83 72.13 C-0.01 63.36, -0.53 52.16, 1.54 43.37 C3.61 34.59, 8.24 26.17, 14.23 19.42 C20.23 12.67, 28.25 5.68, 37.5 2.87 C46.74 0.06, 63.29 2.2, 69.71 2.55 C76.12 2.9, 76.37 3.99, 76 4.97 M35.44 4.53 C43.02 0.71, 55.19 -0.06, 63.8 1.24 C72.42 2.54, 80.23 7.25, 87.13 12.32 C94.03 17.4, 101.07 23.93, 105.22 31.69 C109.36 39.45, 112.14 49.79, 111.99 58.88 C111.83 67.98, 108.44 78.14, 104.28 86.26 C100.12 94.38, 93.95 102.37, 87.04 107.6 C80.13 112.83, 71.37 116.53, 62.83 117.65 C54.29 118.78, 44.23 117.72, 35.8 114.36 C27.36 110.99, 18.01 104.45, 12.2 97.47 C6.39 90.5, 2.59 81.26, 0.93 72.51 C-0.73 63.77, -0.1 53.71, 2.25 45.01 C4.59 36.32, 9.46 27.29, 15.01 20.34 C20.57 13.39, 31.86 5.83, 35.58 3.31 C39.29 0.78, 36.65 4.17, 37.31 5.2" stroke="#000000" stroke-width="1" fill="none"></path></g><g transform="translate(0 0) rotate(0 50.5 22.5)"><text x="50.5" y="32" font-family="Virgil, Segoe UI Emoji" font-size="36px" fill="#000000" text-anchor="middle" style="white-space: pre;" direction="ltr">RDS</text></g><g stroke-linecap="round" transform="translate(0 0) rotate(0 48.67291259765625 46.024078369140625)"><path d="M0 0 C0 0, 0 0, 0 0 M0 0 C0 0, 0 0, 0 0 M-0.84 6.58 C0.89 3.57, 3.18 2.82, 4.9 -0.23 M-0.02 6.12 C1.46 4.26, 3.63 1.49, 5.27 0.2 M-0.3 13.24 C4.87 7.02, 7.88 4.44, 11.86 0.81 M0.33 12.7 C4.62 6.63, 9.26 3.2, 10.87 0.08 M-0.53 16.84 C4.36 13.65, 9.63 9.8, 14.29 -0.24 M-0.82 18.75 C4.11 13.7, 9.66 6.69, 16.45 1.21 M-0.2 24.13 C8.89 14.79, 15.99 3.49, 20.55 1.66 M1.08 23.43 C7.98 16.09, 15.92 8.01, 21.94 0.61 M1.5 28.84 C10.76 19.59, 21.7 7.68, 26.91 -0.12 M-0.93 30.32 C5.16 22.67, 12.63 16.68, 25.99 0.76 M0.64 37.76 C9.23 26, 20.43 16.32, 32.64 0.64 M-0.33 36.67 C11.55 23.88, 23.06 11.01, 31.62 -1.08 M1.96 41.73 C15.5 27.11, 29.47 9.46, 38.56 1.75 M-0.84 41.55 C10.52 31.28, 20.84 19.16, 37.24 0.96 M0.38 50.44 C14.41 30.12, 31.68 11.5, 43.77 -0.92 M-0.1 49.9 C11.87 36.51, 22.79 23.26, 42.21 -0.93 M1.14 55.63 C15.61 32.7, 36.76 14.13, 47.92 1.11 M1.19 54.97 C12.63 39.36, 26.7 23.55, 47.78 -0.46 M-1.97 61.67 C21.53 37.11, 41.29 15.66, 51.97 -0.63 M0.2 60.1 C16.13 42.03, 32.93 23.86, 52.61 0.46 M1.45 68.69 C16.72 46.76, 33.87 26.27, 56.43 -1.01 M-1.12 67.23 C12.35 54.16, 24.41 39.17, 57.79 -0.43 M0.02 71.45 C17.1 50.99, 36.24 30.63, 62.07 1.14 M0.24 72.87 C13.87 57.76, 28.82 41.17, 64.3 -0.12 M-1.98 78.01 C20.84 55.53, 39.8 32.09, 68.26 1.62 M0.56 80.12 C27.42 49.16, 52.89 18.42, 68.08 -0.47 M-0.45 85.03 C17.73 65.34, 34.73 41.89, 73.63 1.27 M0.33 85.17 C21.75 61.18, 44.11 36.1, 73.43 -0.53 M-1.26 92.24 C26.78 60.59, 54.23 29.86, 78.36 0.52 M-0.81 91.04 C21.17 67.08, 41.93 43.89, 80.09 -0.74 M3.16 93.91 C28.98 64.95, 55.5 33.35, 84.94 -2.12 M2.05 94.31 C31.88 62.45, 59.78 30.61, 84.73 -1.23 M6.8 95.44 C37.33 61.92, 65.73 29.66, 88.4 0.44 M8.89 94.95 C26.89 71.98, 46.6 51.3, 89.9 -0.02 M14.14 96.56 C41.36 59.86, 70.93 29.66, 97.07 -1.64 M13.55 94.75 C38.43 62.95, 66.01 31.96, 95.59 0.68 M19 96.04 C36.37 71.64, 55.47 53.03, 97.51 0.89 M19.3 95.31 C36.18 73.74, 55.16 53.32, 98.87 1.79 M23.36 93.51 C54.14 59.26, 82.12 27.58, 98.61 7.63 M24.46 95.11 C49.88 65.96, 76.51 36.11, 98.79 7.78 M29.53 92.67 C52.84 65.95, 80.46 37.61, 100.99 14.18 M29.28 93.91 C49.67 69.98, 71.66 46.66, 100.46 13.7 M34.35 95.8 C59.6 65.89, 83.52 38.31, 100.05 19.05 M34.93 94.61 C49.71 76.38, 64.57 60.67, 98.89 19.2 M37.95 94.23 C50.43 80.37, 64.86 66.12, 97.32 27.01 M38.98 94.91 C54.73 77.83, 70.97 59.81, 99.11 27.26 M46.03 94.9 C59.21 78.89, 73.29 61.91, 97.99 31.96 M44.41 95.11 C65.1 72.76, 84.74 50, 98.43 32.19 M50.57 94.83 C65.64 76.48, 77.82 60.29, 100.48 39.62 M51.14 93.83 C62.36 80.34, 74.84 66.46, 98.73 37.67 M56.1 95.59 C70.56 76.57, 84.59 61.09, 100.49 42.76 M54.96 93.81 C64.71 82.72, 76.49 70.28, 99.29 43.16 M60.45 93.86 C69.92 85.12, 77.23 74.08, 97.26 51.76 M61.13 93.58 C74.26 80.6, 86.8 64.55, 99.83 49.77 M64.99 95.87 C76.67 83.1, 83.34 73.41, 97.68 57.82 M65.28 95.31 C76.23 83.32, 86.08 71.59, 99.3 56.64 M71.39 95.94 C81.75 82.84, 93.56 71.36, 97.83 63.7 M70.96 94.44 C81.99 83.09, 89.95 71.31, 100.23 63.03 M75.87 94.98 C84.31 84.68, 90.45 79.72, 100.46 70.51 M76.66 95.57 C84.75 85.04, 93.8 75.87, 98.92 68.28 M81.95 94.96 C85.97 86.15, 93.04 79.78, 99.13 72.93 M83.26 94.07 C86.11 89.02, 90.49 85.04, 100.37 74.3 M86.76 93.54 C88.67 90.69, 91.22 89.71, 100.34 81.64 M87.1 93.99 C90.71 90.02, 95.46 84.88, 99.23 81.32 M93.23 94.1 C94.24 92.58, 96.46 91.2, 99.52 87.18 M93.16 93.85 C94.89 91.88, 96.45 89.87, 98.83 86.99" stroke="#e64980" stroke-width="0.5" fill="none"></path><path d="M-1.06 -0.69 C25.42 -2.35, 48.92 -2.08, 96.1 0.56 M0.84 0.92 C33.41 -0.12, 69.22 0.65, 97.39 -0.28 M95.92 1.31 C97.45 24.9, 97.5 45.39, 98.62 90.74 M96.38 -0.96 C97 22.82, 97.75 45.02, 97.5 91.54 M98.57 91.56 C64.29 90.53, 30.96 91.8, 1.7 92.53 M97.49 91.06 C74.82 92.88, 52.71 91.84, -0.33 91.3 M-0.43 90.93 C0.87 69.2, 2.16 48.32, -1.22 -0.38 M0.48 91.05 C0.95 63.96, -0.59 37.39, -0.96 -0.32" stroke="#000000" stroke-width="1" fill="none"></path></g><g transform="translate(0 0) rotate(0 66 25)"><text x="0" y="18" font-family="Virgil, Segoe UI Emoji" font-size="20px" fill="#000000" text-anchor="start" style="white-space: pre;" direction="ltr">Amazon RDS </text><text x="0" y="43" font-family="Virgil, Segoe UI Emoji" font-size="20px" fill="#000000" text-anchor="start" style="white-space: pre;" direction="ltr">Master</text></g><g stroke-linecap="round"><g transform="translate(0 0) rotate(0 1.2464162622545274 -196.7679879128932)"><path d="M0.45 0.25 C0.82 -65.42, 2.75 -328.11, 3.26 -393.79 M-0.77 -0.66 C-0.63 -66.18, 1.79 -327.12, 2.41 -392.47" stroke="#000000" stroke-width="2" fill="none"></path></g></g><g stroke-linecap="round"><g transform="translate(0 0) rotate(0 200.3843627553798 2.33351056024685)"><path d="M0.14 -1.12 C67.03 -0.41, 335.19 3.55, 402.02 4.36 M-1.25 0.91 C65.5 1.79, 334.58 5.18, 401.5 5.79" stroke="#000000" stroke-width="2" fill="none"></path></g></g><g stroke-linecap="round"><g transform="translate(0 0) rotate(0 -1.6752717049420198 69.54253622158149)"><path d="M-0.17 1.07 C-0.49 23.92, -1.8 114.51, -2.13 137.17 M-1.71 0.59 C-2.2 23.6, -2.97 115.57, -3.18 138.49" stroke="#000000" stroke-width="2" fill="none"></path></g><g transform="translate(0 0) rotate(0 -1.6752717049420198 69.54253622158149)"><path d="M-11.4 109.87 C-11.01 117.95, -8.33 127.71, -4.12 136.77 M-14.01 109.36 C-10.27 120.61, -5.04 131.5, -2.48 138.47" stroke="#000000" stroke-width="2" fill="none"></path></g><g transform="translate(0 0) rotate(0 -1.6752717049420198 69.54253622158149)"><path d="M9.12 110.05 C3.66 118.06, 0.51 127.76, -4.12 136.77 M6.51 109.54 C2.41 120.71, -0.21 131.52, -2.48 138.47" stroke="#000000" stroke-width="2" fill="none"></path></g></g><g stroke-linecap="round"><g transform="translate(0 0) rotate(0 200.24797049838992 0.5498258767512425)"><path d="M1.09 1.07 C67.93 0.86, 333.72 -0.17, 400.29 -0.1 M0.2 0.58 C66.97 1.04, 332.82 1.3, 399.45 1.16" stroke="#000000" stroke-width="2" fill="none"></path></g></g><g stroke-linecap="round"><g transform="translate(0 0) rotate(0 0.3647575073024427 57.547735290895446)"><path d="M0.99 -0.5 C1.29 18.65, 0.76 96.28, 0.79 115.89 M0.04 -1.81 C0.24 17.38, -0.41 96.83, -0.35 116.9" stroke="#000000" stroke-width="2" fill="none"></path></g><g transform="translate(0 0) rotate(0 0.3647575073024427 57.547735290895446)"><path d="M-11.35 88.09 C-9.77 94.69, -5.43 100.47, -1.96 116.95 M-10.22 87.88 C-7.84 94.97, -4.57 101.35, -0.17 115.93" stroke="#000000" stroke-width="2" fill="none"></path></g><g transform="translate(0 0) rotate(0 0.3647575073024427 57.547735290895446)"><path d="M9.17 88.15 C6.33 94.91, 6.25 100.67, -1.96 116.95 M10.3 87.95 C7.77 95.1, 6.14 101.47, -0.17 115.93" stroke="#000000" stroke-width="2" fill="none"></path></g></g><g stroke-linecap="round"><g transform="translate(0 0) rotate(0 111.70992135554559 -0.4920843146834386)"><path d="M-0.84 -0.95 C36.44 -1.32, 186.9 -2.11, 224.26 -2.15 M0.92 1.16 C38.02 0.97, 186.6 -0.03, 223.47 -0.74" stroke="#000000" stroke-width="2" fill="none"></path></g><g transform="translate(0 0) rotate(0 111.70992135554559 -0.4920843146834386)"><path d="M193.82 10.38 C204.8 5.26, 216.27 4.41, 223.84 -2.33 M196.39 10.38 C203.57 7.02, 211.97 4.33, 223.71 -1.73" stroke="#000000" stroke-width="2" fill="none"></path></g><g transform="translate(0 0) rotate(0 111.70992135554559 -0.4920843146834386)"><path d="M193.57 -10.14 C204.65 -8.08, 216.21 -1.74, 223.84 -2.33 M196.14 -10.14 C203.5 -7.37, 211.97 -3.92, 223.71 -1.73" stroke="#000000" stroke-width="2" fill="none"></path></g></g><g stroke-linecap="round"><g transform="translate(0 0) rotate(0 -113.91292812078257 -0.2689328424679047)"><path d="M-0.59 -0.9 C-38.81 -1.31, -190.12 -1.72, -228.17 -1.78 M1.31 1.24 C-37.18 0.97, -191.18 0.49, -229.13 -0.3" stroke="#000000" stroke-width="2" fill="none"></path></g><g transform="translate(0 0) rotate(0 -113.91292812078257 -0.2689328424679047)"><path d="M-202.33 -10.3 C-212.17 -7.68, -222.6 -0.7, -229.8 0.91 M-200.79 -10.6 C-209.68 -7.28, -217.91 -3.53, -229.41 0.23" stroke="#000000" stroke-width="2" fill="none"></path></g><g transform="translate(0 0) rotate(0 -113.91292812078257 -0.2689328424679047)"><path d="M-202.55 10.22 C-212.42 4.69, -222.76 3.53, -229.8 0.91 M-201.01 9.92 C-209.89 7.33, -218.05 5.17, -229.41 0.23" stroke="#000000" stroke-width="2" fill="none"></path></g></g><g stroke-linecap="round" transform="translate(0 0) rotate(0 48.67291259765625 46.024078369140625)"><path d="M-0.85 -1.08 L95.7 0.8 L96.14 92.81 L-1.16 93.3" stroke="none" stroke-width="0" fill="#e64980"></path><path d="M-1.38 0.42 C34.85 1.3, 75.01 1.63, 96.68 1.45 M-0.38 0.21 C27.35 1.55, 52.59 0.46, 97.53 0.6 M97.48 -1.85 C95.51 36.7, 97.33 70.42, 95.88 91.88 M96.48 -0.38 C97.49 23.95, 97.86 46.34, 98.27 92.25 M97.77 91.18 C64.29 93.02, 26.94 91.98, 1.53 92.84 M96.98 92.96 C59.05 92.18, 19.81 92.65, -0.9 92.91 M1.31 93.25 C-1.02 65.35, 2.05 40.32, 0.2 -1.11 M-0.1 92.83 C1.38 59.48, 0.27 28.44, -0.42 -0.19" stroke="#000000" stroke-width="1" fill="none"></path></g><g transform="translate(0 0) rotate(0 43.5 22.5)"><text x="43.5" y="32" font-family="Virgil, Segoe UI Emoji" font-size="36px" fill="#000000" text-anchor="middle" style="white-space: pre;" direction="ltr">EFS</text></g><g transform="translate(0 0) rotate(0 59.5 12.5)"><text x="0" y="18" font-family="Virgil, Segoe UI Emoji" font-size="20px" fill="#000000" text-anchor="start" style="white-space: pre;" direction="ltr">Amazon EFS</text></g><g transform="translate(0 0) rotate(0 64 25)"><text x="0" y="18" font-family="Virgil, Segoe UI Emoji" font-size="20px" fill="#000000" text-anchor="start" style="white-space: pre;" direction="ltr">Amazon EFS </text><text x="0" y="43" font-family="Virgil, Segoe UI Emoji" font-size="20px" fill="#000000" text-anchor="start" style="white-space: pre;" direction="ltr">탑재대상</text></g><g stroke-linecap="round"><g transform="translate(0 0) rotate(0 166.27363881915804 0.11461240946778162)"><path d="M-0.1 -0.07 C55.42 -0.07, 278.43 0.21, 334.16 0.42 M-1.61 -1.15 C53.71 -1.08, 277.58 0.8, 333.49 1.38" stroke="#000000" stroke-width="2" fill="none"></path></g><g transform="translate(0 0) rotate(0 166.27363881915804 0.11461240946778162)"><path d="M305.1 12.28 C314.29 8.64, 326.5 3.63, 332.93 3.2 M305.69 11.88 C314.47 7.81, 322.61 3.89, 332.74 1.63" stroke="#000000" stroke-width="2" fill="none"></path></g><g transform="translate(0 0) rotate(0 166.27363881915804 0.11461240946778162)"><path d="M305.28 -8.24 C314.48 -3.93, 326.62 -1, 332.93 3.2 M305.87 -8.64 C314.73 -6.15, 322.81 -3.5, 332.74 1.63" stroke="#000000" stroke-width="2" fill="none"></path></g></g><g transform="translate(0 0) rotate(0 33.5 22.5)"><text x="0" y="32" font-family="Virgil, Segoe UI Emoji" font-size="36px" fill="#a61e4d" text-anchor="start" style="white-space: pre;" direction="ltr">VPC</text></g><g stroke-linecap="round" transform="translate(0 0) rotate(0 70 66.5)"><path d="M87.1 2.8 C96.62 4.06, 106.94 8.87, 114.72 15.11 C122.51 21.34, 129.64 31.09, 133.83 40.22 C138.02 49.35, 140.33 60.43, 139.85 69.88 C139.37 79.34, 135.68 88.71, 130.95 96.94 C126.23 105.17, 119.49 113.48, 111.5 119.26 C103.51 125.03, 92.82 129.59, 83 131.57 C73.17 133.56, 62.22 133.58, 52.54 131.15 C42.87 128.71, 32.58 123.42, 24.97 116.97 C17.35 110.52, 10.89 101.33, 6.84 92.44 C2.79 83.55, 0.57 73.2, 0.66 63.64 C0.75 54.08, 2.92 43.45, 7.38 35.07 C11.83 26.68, 19.26 19.06, 27.39 13.33 C35.52 7.6, 45.28 2.2, 56.14 0.69 C67.01 -0.81, 85.92 3.37, 92.57 4.29 C99.23 5.22, 96.5 5.3, 96.05 6.25 M50.5 2.62 C59.56 -1.16, 72.74 -1.14, 82.55 0.53 C92.36 2.19, 101.21 6.88, 109.35 12.62 C117.5 18.36, 126.09 26.84, 131.42 34.99 C136.75 43.14, 140.79 51.92, 141.33 61.53 C141.87 71.14, 138.64 83.86, 134.67 92.66 C130.7 101.47, 125.07 107.95, 117.52 114.35 C109.97 120.75, 99.2 128.02, 89.37 131.08 C79.54 134.15, 68.4 134.42, 58.55 132.74 C48.71 131.06, 38.46 126.58, 30.31 121.02 C22.17 115.45, 14.48 107.62, 9.68 99.36 C4.88 91.1, 2.34 80.98, 1.51 71.44 C0.69 61.9, 1.3 50.99, 4.74 42.13 C8.19 33.28, 14.67 24.74, 22.2 18.31 C29.73 11.88, 45.08 5.74, 49.92 3.56 C54.76 1.38, 50.97 4.47, 51.25 5.23" stroke="none" stroke-width="0" fill="#fd7e14"></path><path d="M97.09 5.63 C106.22 8.12, 114.99 14.61, 121.59 21.65 C128.18 28.68, 133.83 38.6, 136.69 47.83 C139.54 57.06, 140.28 67.5, 138.73 77.03 C137.18 86.56, 133.01 97.12, 127.4 105.02 C121.78 112.92, 114.03 119.84, 105.05 124.42 C96.06 129, 83.6 131.79, 73.48 132.51 C63.35 133.24, 53.71 132.54, 44.3 128.78 C34.88 125.03, 23.88 117.33, 16.99 109.97 C10.1 102.62, 5.49 93.77, 2.94 84.66 C0.4 75.55, -0.07 64.75, 1.73 55.33 C3.52 45.9, 8.13 35.93, 13.73 28.1 C19.33 20.28, 26.52 12.98, 35.35 8.35 C44.17 3.73, 55.89 0.55, 66.68 0.34 C77.47 0.14, 93.67 5.56, 100.08 7.11 C106.49 8.65, 105.59 8.67, 105.16 9.62 M97.78 7.53 C107.11 10.49, 117.03 16.85, 123.73 24.03 C130.42 31.22, 135.46 41.31, 137.95 50.64 C140.45 59.98, 140.75 70.48, 138.69 80.03 C136.63 89.57, 131.89 100.06, 125.57 107.9 C119.25 115.74, 109.59 122.83, 100.78 127.09 C91.97 131.35, 82.65 133.72, 72.69 133.45 C62.74 133.18, 50.68 129.48, 41.03 125.48 C31.39 121.49, 21.11 116.53, 14.82 109.48 C8.53 102.44, 5.58 92.78, 3.29 83.19 C1 73.6, -1 61.39, 1.08 51.95 C3.16 42.51, 9.45 34.21, 15.77 26.54 C22.09 18.86, 30.11 10.5, 39 5.9 C47.88 1.31, 59.23 -0.85, 69.09 -1.04 C78.95 -1.24, 93.32 3.54, 98.15 4.74 C102.97 5.94, 98.47 4.98, 98.04 6.16" stroke="#000000" stroke-width="2" fill="none"></path></g><g transform="translate(0 0) rotate(0 65 35)"><text x="65" y="25" font-family="Virgil, Segoe UI Emoji" font-size="28px" fill="#000000" text-anchor="middle" style="white-space: pre;" direction="ltr">Internet </text><text x="65" y="60" font-family="Virgil, Segoe UI Emoji" font-size="28px" fill="#000000" text-anchor="middle" style="white-space: pre;" direction="ltr">Gateway</text></g><g transform="translate(0 0) rotate(0 110 17.5)"><text x="0" y="25" font-family="Virgil, Segoe UI Emoji" font-size="28px" fill="#a61e4d" text-anchor="start" style="white-space: pre;" direction="ltr">priavate subnet</text></g><g stroke-linecap="round" transform="translate(0 0) rotate(0 112.37667846679688 107.96142578125)"><path d="M1.3 -0.02 C75.1 0.81, 147.19 -0.46, 223.04 -0.54 M223.5 -0.48 C224.84 78.26, 225 153.38, 223.98 214.69 M224.17 216.18 C169.85 215.77, 116.59 213.67, 1 215.45 M-1.19 215.11 C-1.11 131.22, -0.84 48.58, 0.58 1.35" stroke="#000000" stroke-width="1.5" fill="none" stroke-dasharray="8 9"></path></g><g transform="translate(0 0) rotate(0 88 17.5)"><text x="0" y="25" font-family="Virgil, Segoe UI Emoji" font-size="28px" fill="#a61e4d" text-anchor="start" style="white-space: pre;" direction="ltr">public subnet</text></g><g stroke-linecap="round" transform="translate(0 0) rotate(0 69.5 57.5)"><path d="M28.32 1.97 L118.7 1.43 L121.84 1.16 L132.42 7.01 L135.74 15.1 L137.28 29.29 L139.77 94.36 L136.38 99.3 L132.7 108.51 L121.34 111.45 L108.38 115.13 L20.26 116.25 L11.51 111.1 L6.27 107.76 L3.21 97.29 L0.92 92.33 L-1.19 20.09 L4.67 10.72 L5.9 6.41 L16.68 3.05 L29.55 -0.63" stroke="none" stroke-width="0" fill="#fd7e14"></path><path d="M28.75 0 M28.75 0 C53.7 0.32, 75.41 0.55, 110.25 0 M28.75 0 C55.71 -0.09, 84.97 0.83, 110.25 0 M110.25 0 C130.76 -0.62, 140.73 9.2, 139 28.75 M110.25 0 C128.63 0.59, 136.75 8.42, 139 28.75 M139 28.75 C139.9 43.73, 138.36 56.04, 139 86.25 M139 28.75 C137.8 47.79, 138.52 64.95, 139 86.25 M139 86.25 C139.82 106.68, 129.61 116.6, 110.25 115 M139 86.25 C138.21 103.89, 131.42 112.72, 110.25 115 M110.25 115 C88.52 112.92, 64.12 114.38, 28.75 115 M110.25 115 C87.66 115.87, 65.88 115.03, 28.75 115 M28.75 115 C10.27 116.95, 0.74 104.64, 0 86.25 M28.75 115 C9.17 114.45, -1.06 103.65, 0 86.25 M0 86.25 C0.32 66.7, 0.77 46.18, 0 28.75 M0 86.25 C0.62 63.95, 0.58 40.29, 0 28.75 M0 28.75 C-1.77 8.9, 9.78 1.1, 28.75 0 M0 28.75 C0.15 8.31, 10.03 -0.09, 28.75 0" stroke="#000000" stroke-width="2" fill="none"></path></g><g transform="translate(0 0) rotate(0 64.5 35)"><text x="64.5" y="25" font-family="Virgil, Segoe UI Emoji" font-size="28px" fill="#000000" text-anchor="middle" style="white-space: pre;" direction="ltr">NAT</text><text x="64.5" y="60" font-family="Virgil, Segoe UI Emoji" font-size="28px" fill="#000000" text-anchor="middle" style="white-space: pre;" direction="ltr">Gateway</text></g><g stroke-linecap="round"><g transform="translate(0 0) rotate(0 -67.82761349976062 -0.04156729356384403)"><path d="M-0.02 0.15 C-22.45 0.21, -113.04 -0.6, -135.64 -0.53 M-1.48 -0.81 C-23.48 -0.52, -111.58 0.83, -133.55 0.73" stroke="#000000" stroke-width="4" fill="none"></path></g></g><g stroke-linecap="round"><g transform="translate(0 0) rotate(0 NaN NaN)"><path d="M1.2 0.27 CNaN NaN, NaN NaN, NaN NaN M0.37 -0.64 CNaN NaN, NaN NaN, NaN NaN" stroke="#000000" stroke-width="4" fill="none"></path></g><g transform="translate(0 0) rotate(0 NaN NaN)"><path d="MNaN NaN CNaN NaN, NaN NaN, NaN NaN MNaN NaN CNaN NaN, NaN NaN, NaN NaN" stroke="#000000" stroke-width="4" fill="none"></path></g><g transform="translate(0 0) rotate(0 NaN NaN)"><path d="MNaN NaN CNaN NaN, NaN NaN, NaN NaN MNaN NaN CNaN NaN, NaN NaN, NaN NaN" stroke="#000000" stroke-width="4" fill="none"></path></g></g><g stroke-linecap="round"><g transform="translate(0 0) rotate(0 -56.448957412855634 -0.22592978775503525)"><path d="M0.36 0.64 C-18.52 0.26, -93.95 -1.01, -112.84 -1.09 M-0.92 -0.08 C-19.9 0.16, -94.52 -0.4, -113.25 -0.12" stroke="#000000" stroke-width="4" fill="none"></path></g><g transform="translate(0 0) rotate(0 -56.448957412855634 -0.22592978775503525)"><path d="M-84.03 -8.74 C-96.23 -5.47, -103.55 -4.32, -112.09 -1.6 M-85.81 -10.5 C-92.39 -8.46, -99.41 -5.36, -112.77 0.72" stroke="#000000" stroke-width="4" fill="none"></path></g><g transform="translate(0 0) rotate(0 -56.448957412855634 -0.22592978775503525)"><path d="M-83.98 11.78 C-96.4 8.18, -103.73 2.46, -112.09 -1.6 M-85.76 10.02 C-92.18 7.06, -99.21 5.16, -112.77 0.72" stroke="#000000" stroke-width="4" fill="none"></path></g></g><g stroke-linecap="round" transform="translate(0 0) rotate(0 85.5 99.00973946707586)"><path d="M87.02 1.92 L170.12 100.04 L87.75 197.15 L-0.47 99.68" stroke="none" stroke-width="0" fill="#fd7e14" fill-rule="evenodd"></path><path d="M85.42 0.5 C108.51 27.41, 132.08 51.03, 173 101.3 M86.17 0.31 C106.55 22.7, 126.46 47.07, 170.33 100.43 M172.93 101.18 C146.57 127.24, 125.75 155.3, 85.58 197.73 M171.02 100.76 C146.97 129.08, 122.7 156.76, 85.06 197.19 M87.94 196.51 C65.94 178.81, 49.47 155.78, 1.15 98.96 M86.65 197.63 C52.47 160.74, 20.23 122.46, 0.29 100.33 M-0.43 98.48 C28.89 66.61, 57.11 34.69, 85.18 -0.05 M0.58 100.21 C34.11 61.23, 67.16 21.33, 86.4 -0.71" stroke="#000000" stroke-width="1" fill="none"></path></g><g transform="translate(0 0) rotate(0 80.5 17.5)"><text x="80.5" y="25" font-family="Virgil, Segoe UI Emoji" font-size="28px" fill="#000000" text-anchor="middle" style="white-space: pre;" direction="ltr">Route 53</text></g><g stroke-linecap="round" transform="translate(0 0) rotate(0 478.70489501953136 127.8760986328125)"><path d="M63.94 0 M63.94 0 C347.92 -1.42, 633.69 -0.92, 893.47 0 M893.47 0 C937.03 0.19, 956.37 19.82, 957.41 63.94 M957.41 63.94 C955.75 115.03, 955.86 162.11, 957.41 191.81 M957.41 191.81 C956.33 234.31, 936.91 257.68, 893.47 255.75 M893.47 255.75 C675.57 259.44, 459.09 258.62, 63.94 255.75 M63.94 255.75 C19.35 256.64, 1.05 232.83, 0 191.81 M0 191.81 C0.62 158.41, 0.44 126.01, 0 63.94 M0 63.94 C1.82 20.44, 22.75 1.22, 63.94 0" stroke="#000000" stroke-width="1.5" fill="none" stroke-dasharray="1.5 7"></path></g><g stroke-linecap="round" transform="translate(0 0) rotate(0 112.37667846679688 107.96142578125)"><path d="M-1.53 1.61 C70.83 2.06, 142.72 0.37, 223.47 1.49 M226.18 -0.3 C224.39 43.43, 224.92 89.46, 226.43 215.26 M226.03 217.32 C175.58 213.3, 128.17 215.89, -1.38 215.11 M-0.94 215.77 C0.34 163.03, 0.58 108.22, 1.06 1.46" stroke="#000000" stroke-width="1.5" fill="none" stroke-dasharray="8 9"></path></g><g stroke-linecap="round" transform="translate(0 0) rotate(0 69.22811889648438 58.541595458984375)"><path d="M29.7 -1.3 L114.27 2.33 L121.46 2.76 L131.32 6.28 L135.14 18.2 L136.57 29.57 L137.55 96.31 L136.29 99.88 L130.05 109.63 L122.81 117.18 L108.43 115.41 L24.28 115.66 L17.95 116.89 L6.74 107.8 L5.01 106.7 L-1.15 93.73 L-0.5 20.98 L4.13 10.35 L7.15 6.16 L18.29 0.95 L30.71 1.22" stroke="none" stroke-width="0" fill="#fab005"></path><path d="M29.27 0 M29.27 0 C59.67 1.58, 88.63 -0.65, 109.19 0 M29.27 0 C49.69 -0.28, 70.55 1.11, 109.19 0 M109.19 0 C129.77 0.81, 140.02 7.88, 138.46 29.27 M109.19 0 C129.55 -2.3, 136.61 8.03, 138.46 29.27 M138.46 29.27 C139.99 42.05, 137.44 57.74, 138.46 87.81 M138.46 29.27 C138.07 49.26, 138.49 68.22, 138.46 87.81 M138.46 87.81 C139.5 106.1, 128.86 116.09, 109.19 117.08 M138.46 87.81 C138.56 105.85, 130.25 114.98, 109.19 117.08 M109.19 117.08 C93.62 117.32, 76.69 115.04, 29.27 117.08 M109.19 117.08 C91.98 117.04, 73.33 116.86, 29.27 117.08 M29.27 117.08 C9.82 115.34, -1.87 105.34, 0 87.81 M29.27 117.08 C10.77 115.61, 2.2 107.91, 0 87.81 M0 87.81 C-0.41 63.61, -2.38 43.72, 0 29.27 M0 87.81 C-0.41 73.49, -1.26 58.97, 0 29.27 M0 29.27 C-0.79 11.31, 10.08 1.12, 29.27 0 M0 29.27 C-0.2 11.56, 10.68 0.58, 29.27 0" stroke="#000000" stroke-width="1" fill="none"></path></g><g transform="translate(0 0) rotate(0 64 22.5)"><text x="64" y="32" font-family="Virgil, Segoe UI Emoji" font-size="36px" fill="#000000" text-anchor="middle" style="white-space: pre;" direction="ltr">EC2</text></g><g transform="translate(0 0) rotate(0 88 17.5)"><text x="0" y="25" font-family="Virgil, Segoe UI Emoji" font-size="28px" fill="#a61e4d" text-anchor="start" style="white-space: pre;" direction="ltr">public subnet</text></g><g transform="translate(0 0) rotate(0 21 17.5)"><text x="0" y="25" font-family="Virgil, Segoe UI Emoji" font-size="28px" fill="#1864ab" text-anchor="start" style="white-space: pre;" direction="ltr">AZ</text></g><g stroke-linecap="round" transform="translate(0 0) rotate(0 196.40457153320312 107.96142578125)"><path d="M-0.86 1 C135.08 1.35, 272.08 2.12, 392.61 -0.43 M394.49 -0.66 C391.23 54.7, 391.84 107.44, 394.23 215.42 M391.88 215.38 C313.05 216.29, 234.41 216.49, -0.1 215.25 M1.06 217.39 C2.46 131.84, 0.6 48.58, -1.72 -0.43" stroke="#000000" stroke-width="1.5" fill="none" stroke-dasharray="8 9"></path></g><g stroke-linecap="round" transform="translate(0 0) rotate(0 55.5 59)"><path d="M55.85 -0.88 C64.04 -1.82, 73.98 1.79, 81.75 6.45 C89.53 11.12, 97.58 19.41, 102.51 27.1 C107.43 34.79, 110.68 43.71, 111.3 52.59 C111.91 61.46, 109.42 71.64, 106.19 80.36 C102.96 89.09, 98.46 98.83, 91.93 104.91 C85.4 111, 75.64 115.04, 67.03 116.88 C58.43 118.72, 48.66 118.57, 40.3 115.98 C31.95 113.39, 23.24 107.47, 16.88 101.32 C10.53 95.18, 5 87.4, 2.18 79.1 C-0.65 70.79, -1.51 60.48, -0.07 51.51 C1.37 42.53, 5.54 32.88, 10.81 25.24 C16.08 17.6, 23.31 9.99, 31.54 5.68 C39.77 1.38, 55.05 -0.04, 60.21 -0.59 C65.37 -1.15, 62.65 1.15, 62.5 2.35 M40.51 2.87 C48.16 -0.01, 59.28 0.71, 67.92 2.81 C76.56 4.91, 85.79 9.45, 92.33 15.48 C98.87 21.51, 104.01 30.53, 107.16 38.98 C110.31 47.43, 112.41 57.52, 111.23 66.19 C110.06 74.86, 105.18 83.41, 100.09 90.99 C95.01 98.57, 88.15 106.95, 80.74 111.67 C73.33 116.39, 64.06 119.13, 55.64 119.3 C47.23 119.47, 37.66 117.28, 30.25 112.68 C22.84 108.08, 15.99 99.16, 11.17 91.69 C6.35 84.23, 2.45 76.75, 1.34 67.89 C0.23 59.02, 1.68 47.48, 4.5 38.51 C7.32 29.53, 11.88 20.34, 18.25 14.05 C24.62 7.77, 38.65 2.67, 42.71 0.79 C46.76 -1.08, 42.6 1.82, 42.57 2.78" stroke="none" stroke-width="0" fill="#228be6"></path><path d="M31.06 6.29 C37.87 1.51, 47.28 -0.73, 55.73 -0.54 C64.18 -0.34, 73.97 3.1, 81.76 7.47 C89.55 11.83, 97.8 17.97, 102.48 25.63 C107.15 33.3, 109.13 44.18, 109.83 53.46 C110.53 62.73, 109.55 72.95, 106.69 81.26 C103.83 89.57, 99.25 97.36, 92.67 103.29 C86.09 109.23, 75.63 114.88, 67.21 116.88 C58.8 118.89, 50.4 117.76, 42.16 115.32 C33.92 112.89, 24.36 108.26, 17.78 102.26 C11.2 96.26, 5.65 87.84, 2.68 79.33 C-0.29 70.81, -1.21 60.08, -0.06 51.17 C1.09 42.26, 3.69 33.64, 9.59 25.87 C15.49 18.1, 29.86 8.24, 35.33 4.57 C40.81 0.91, 41.87 3.05, 42.43 3.88 M51.48 -0.53 C59.43 -1.83, 70.47 0.79, 78.38 4.45 C86.29 8.11, 93.58 13.99, 98.94 21.45 C104.31 28.91, 108.85 39.99, 110.59 49.22 C112.33 58.46, 111.79 68.55, 109.38 76.86 C106.97 85.17, 102.21 92.94, 96.13 99.09 C90.04 105.23, 81.44 110.92, 72.85 113.74 C64.26 116.55, 53.27 117.08, 44.58 115.96 C35.9 114.84, 27.47 112.29, 20.74 107.01 C14.02 101.72, 7.9 92.99, 4.23 84.25 C0.56 75.51, -1.79 63.76, -1.27 54.59 C-0.76 45.42, 2.81 36.79, 7.33 29.23 C11.85 21.66, 18.44 13.92, 25.84 9.21 C33.23 4.5, 47.26 2.25, 51.69 0.96 C56.11 -0.34, 52.17 0.73, 52.39 1.42" stroke="#000000" stroke-width="1" fill="none"></path></g><g transform="translate(0 0) rotate(0 50.5 22.5)"><text x="50.5" y="32" font-family="Virgil, Segoe UI Emoji" font-size="36px" fill="#000000" text-anchor="middle" style="white-space: pre;" direction="ltr">RDS</text></g><g stroke-linecap="round" transform="translate(0 0) rotate(0 48.67291259765625 46.024078369140625)"><path d="M0 0 C0 0, 0 0, 0 0 M0 0 C0 0, 0 0, 0 0 M0.32 6.08 C1.85 4.83, 3.19 2.89, 5.62 0.68 M-0.47 6.55 C1.46 4.83, 3.28 2.86, 5.3 0.08 M0.29 11.79 C2.75 8.43, 6.52 3.65, 10.47 -0.88 M0.82 12.8 C2.34 9.29, 5.32 5.58, 11.31 0.33 M0.33 20.28 C4.45 10.46, 12.52 4.61, 17.43 0.89 M0.64 18.18 C5.44 12.57, 10.36 6.28, 16.22 -0.32 M0.92 24.5 C6.1 17.16, 16.34 9.62, 19.98 0.31 M1.13 23.2 C7.45 15.13, 16.12 5.72, 21.91 -0.53 M-1.08 30.06 C10.41 21.08, 16.36 10.74, 25.5 -1.04 M0.96 29.65 C9.76 18.03, 19.19 7.67, 26.06 -0.43 M-0.22 36.95 C11.9 25.38, 22.41 13.33, 32.51 0.32 M0.36 36.03 C8.86 25.87, 18.37 15.38, 32.6 0.82 M-1.63 40.89 C13.33 23.81, 29.93 9.81, 36.27 -1.27 M0.82 43.48 C11.31 30.45, 21.54 18.27, 36.16 0.66 M-0.02 50.68 C16.44 32.11, 32.19 10.66, 40.87 0.45 M0.72 49.43 C14.45 33.74, 26.5 16.65, 42.95 0.49 M-0.25 54.05 C13.79 38.62, 24.39 25.45, 48.92 0.87 M-0.49 53.8 C9.21 43.98, 18.96 33.08, 47.02 1.15 M0.31 62.86 C12.83 48.69, 21.34 36.81, 53.59 1.55 M-0.05 60.46 C19.73 37.27, 39.45 14.68, 53.07 0.33 M-0.79 66.87 C23.03 40, 42 14.77, 56.33 -0.62 M0.34 67.36 C15.53 49.37, 31.05 31.81, 58.81 0.05 M1.88 71.22 C14.56 58.34, 26.44 41.68, 62.89 -0.27 M0.08 72.28 C13.67 56.09, 27.87 41.34, 63.7 0.05 M-1.49 77.73 C23.8 51.46, 46.95 27.44, 69.06 1.55 M-0.75 78.48 C14.93 63.37, 30.12 45.38, 69.34 -0.75 M-0.49 86.82 C20.18 62.5, 39.88 42.16, 72.68 -1.53 M0.81 84.89 C22.2 62.11, 41.18 38.87, 74.23 -0.81 M1.15 90.59 C20.75 68.56, 39.8 42.43, 79.35 -0.01 M0.85 91.58 C28.97 60.72, 55.8 27.05, 80.1 -0.53 M4.32 94.99 C24.09 70.33, 42.75 46.16, 86.54 0.53 M2.1 94.12 C26.66 66.43, 50.56 36.73, 84.72 -0.85 M6.86 94.91 C32.9 61.72, 62.47 30.39, 89.16 0.62 M8.95 95.11 C38.9 58.07, 71.03 21.1, 90.21 0.26 M11.09 96.12 C45.96 59.17, 75.24 20.97, 95.75 -0.02 M13.58 94.36 C37.07 67.13, 60.13 38.81, 95.88 -0.84 M17.92 94.56 C35.85 74.71, 51.48 54.19, 100.78 0.19 M18.87 94.49 C35.48 75.82, 51.44 56.33, 99.17 1.55 M25.14 92.76 C47.5 67.87, 70.89 42.51, 100.08 6.52 M23.33 95.7 C51.22 62.14, 79.32 32.07, 99.86 8.6 M30.91 93.69 C54.53 66.28, 80.65 34.96, 99.65 12.3 M29.25 93.92 C47.14 74.02, 66.19 52.21, 99.53 13.63 M35.36 93.94 C54.32 68.65, 77.41 45.33, 98.1 20.33 M35.02 94.27 C52.89 73.51, 72.18 50.26, 98.62 19.86 M40.74 92.77 C52.58 78.94, 69.4 61.93, 97.31 25 M39.97 94.46 C52.92 81.17, 64.05 67.05, 99.92 26.79 M45.01 93.29 C60.09 76.54, 71.54 64, 99.44 33.65 M44.64 94.28 C64.7 73.21, 83.62 49.8, 100.13 31.93 M50.01 95.55 C58.49 83.7, 69.12 71.39, 99.76 39.95 M49.6 94.99 C64.04 77.42, 79.08 61.63, 99.43 38.46 M55.03 93.72 C69.57 77.01, 83.37 60.98, 98.14 45.8 M55.81 94.8 C67.13 79.73, 80.48 64.82, 99.71 43.42 M60.99 93.12 C70.06 83.42, 76.72 76.33, 100.7 50.41 M61.35 94.25 C73.17 80.39, 85.57 67.35, 98.81 51.17 M68.04 95.47 C73 83.28, 82.01 77.27, 99.25 56.19 M65.82 93.72 C77.59 82.13, 89.9 68.67, 98.71 57.54 M71.66 95.87 C79.04 86.87, 86.15 80.42, 100.2 62.15 M71.08 94.82 C81.28 83.91, 87.9 74.18, 99.13 61.55 M76.34 96.08 C82.4 87.63, 87.49 84.3, 97.49 69.26 M77.61 93.81 C82.97 88.38, 88.43 82.84, 99.09 69.08 M83.66 93.51 C87.39 88.27, 93.64 83.75, 100.02 74.29 M83.32 95.11 C87.41 90.29, 91.04 84.02, 99.11 75.06 M86.09 94.43 C90.47 92.46, 92.77 88.9, 97.49 79.22 M87.77 94.65 C91.81 90.17, 96.46 83.6, 99.46 80.93 M93.64 94.55 C95.17 91.41, 95.53 90.81, 98.95 87.65 M93.14 93.81 C95.16 92.06, 96.92 90.21, 98.75 87.1" stroke="#e64980" stroke-width="0.5" fill="none"></path><path d="M0.3 -0.45 C23.59 0.58, 43.16 -0.16, 97.21 0.81 M0.93 -0.48 C39.31 1.63, 76.84 -0.17, 97.79 0.53 M95.92 0.01 C95.83 20.04, 95.75 42.24, 96.47 93.49 M97.54 -0.13 C98.99 32.24, 97.87 66.01, 97.59 91.64 M98.9 93.12 C69.36 93.97, 37.87 93.15, -2 90.44 M96.83 92.55 C74.55 92.16, 53.21 93.26, -0.47 92.41 M0.16 93.09 C-1.73 65.63, -1.5 38.98, -1.28 1.34 M-0.95 92.67 C1.32 73.42, 0.18 52.92, -0.81 0.58" stroke="#000000" stroke-width="1" fill="none"></path></g><g transform="translate(0 0) rotate(0 66 25)"><text x="0" y="18" font-family="Virgil, Segoe UI Emoji" font-size="20px" fill="#000000" text-anchor="start" style="white-space: pre;" direction="ltr">Amazon RDS </text><text x="0" y="43" font-family="Virgil, Segoe UI Emoji" font-size="20px" fill="#000000" text-anchor="start" style="white-space: pre;" direction="ltr">Stand-By</text></g><g transform="translate(0 0) rotate(0 64 25)"><text x="0" y="18" font-family="Virgil, Segoe UI Emoji" font-size="20px" fill="#000000" text-anchor="start" style="white-space: pre;" direction="ltr">Amazon EFS </text><text x="0" y="43" font-family="Virgil, Segoe UI Emoji" font-size="20px" fill="#000000" text-anchor="start" style="white-space: pre;" direction="ltr">탑재대상</text></g><g transform="translate(0 0) rotate(0 110 17.5)"><text x="0" y="25" font-family="Virgil, Segoe UI Emoji" font-size="28px" fill="#a61e4d" text-anchor="start" style="white-space: pre;" direction="ltr">priavate subnet</text></g><g stroke-linecap="round" transform="translate(0 0) rotate(0 112.37667846679688 107.96142578125)"><path d="M1.65 -0.65 C53.81 0.82, 109.66 0.49, 226.15 -0.5 M223.35 -0.82 C224.76 42.29, 225.6 86.13, 224.6 214.91 M225.8 217.36 C138.48 217.65, 48.76 218.81, -1.69 215.5 M-0.07 214.85 C0.17 162.01, 0.47 106.09, 1.37 -1.64" stroke="#000000" stroke-width="1.5" fill="none" stroke-dasharray="8 9"></path></g><g transform="translate(0 0) rotate(0 88 17.5)"><text x="0" y="25" font-family="Virgil, Segoe UI Emoji" font-size="28px" fill="#a61e4d" text-anchor="start" style="white-space: pre;" direction="ltr">public subnet</text></g><g stroke-linecap="round" transform="translate(0 0) rotate(0 69.5 57.5)"><path d="M29.56 1.92 L116.23 -1.22 L124.69 0.83 L133.3 8.82 L136.62 14.2 L139.89 29.8 L136.94 92.04 L136.25 97.4 L131.82 106.73 L122.66 112.05 L112.07 114.13 L23.45 115.77 L12.91 112.83 L7.58 107.55 L3.54 96.86 L-0.04 92.11 L0.95 21.19 L3.96 10.01 L7.92 8.74 L17.25 2.61 L30.31 -1.88" stroke="none" stroke-width="0" fill="#fd7e14"></path><path d="M28.75 0 M28.75 0 C54.71 -0.36, 85.49 -0.38, 110.25 0 M28.75 0 C56.94 0.95, 85.35 0.99, 110.25 0 M110.25 0 C129.19 1.1, 139.62 9.74, 139 28.75 M110.25 0 C130.62 -1.41, 139.19 8.44, 139 28.75 M139 28.75 C136.8 44.47, 137.32 61.88, 139 86.25 M139 28.75 C138.64 48.85, 138.47 71.01, 139 86.25 M139 86.25 C140.74 104.39, 129.99 113.63, 110.25 115 M139 86.25 C139.07 103.41, 127.27 112.71, 110.25 115 M110.25 115 C82.7 117.5, 55.55 114.85, 28.75 115 M110.25 115 C86.36 113.72, 61.88 113.7, 28.75 115 M28.75 115 C9.36 115.92, -1.92 106.86, 0 86.25 M28.75 115 C8.68 116.78, 0.37 106.7, 0 86.25 M0 86.25 C0.05 67.84, -2.15 51.68, 0 28.75 M0 86.25 C0.25 67.69, 0.85 46.68, 0 28.75 M0 28.75 C1.2 11.56, 10.91 0.2, 28.75 0 M0 28.75 C-0.37 8.08, 10.75 -1.52, 28.75 0" stroke="#000000" stroke-width="2" fill="none"></path></g><g transform="translate(0 0) rotate(0 64.5 35)"><text x="64.5" y="25" font-family="Virgil, Segoe UI Emoji" font-size="28px" fill="#000000" text-anchor="middle" style="white-space: pre;" direction="ltr">NAT</text><text x="64.5" y="60" font-family="Virgil, Segoe UI Emoji" font-size="28px" fill="#000000" text-anchor="middle" style="white-space: pre;" direction="ltr">Gateway</text></g><g stroke-linecap="round"><g transform="translate(0 0) rotate(0 -56.16811782668151 0.5495480886194741)"><path d="M1.12 -0.58 C-17.63 -0.25, -93.75 1.08, -112.97 0.98 M0.25 1.73 C-18.55 1.83, -94.22 -0.26, -113.46 -0.63" stroke="#000000" stroke-width="4" fill="none"></path></g><g transform="translate(0 0) rotate(0 -56.16811782668151 0.5495480886194741)"><path d="M-86 -8.74 C-90.93 -8.03, -101.99 -4.04, -112.4 -2.24 M-85.03 -10.77 C-92.35 -8.58, -98.54 -6.02, -112.73 -0.02" stroke="#000000" stroke-width="4" fill="none"></path></g><g transform="translate(0 0) rotate(0 -56.16811782668151 0.5495480886194741)"><path d="M-86.48 11.77 C-91.12 7.11, -102.04 5.72, -112.4 -2.24 M-85.51 9.75 C-92.61 6.75, -98.68 4.13, -112.73 -0.02" stroke="#000000" stroke-width="4" fill="none"></path></g></g><g stroke-linecap="round" transform="translate(0 0) rotate(0 126.5 70)"><path d="M128.41 -0.62 L252.29 70.79 L127.99 140.58 L-1.48 70.72" stroke="none" stroke-width="0" fill="#fd7e14" fill-rule="evenodd"></path><path d="M125.12 1.63 C175.28 25.13, 217.87 52.59, 253.41 70.38 M127.36 0.51 C156.07 15.06, 185.86 33.38, 253.1 71.92 M254.81 71.45 C215.3 92.51, 179.36 110.6, 128.2 139.27 M252.67 71.78 C224.43 88.5, 195.34 104.26, 126.53 139.21 M128.27 139.01 C93.44 119.04, 57.5 101.09, 1.8 69.72 M127.77 140.78 C97.53 124.9, 68.92 109.53, -0.82 70.96 M-0.75 72.1 C50.45 43.04, 98.46 13.38, 126.78 -1.02 M0.8 70.3 C38.81 49.23, 76.16 27.64, 127.94 0.5" stroke="#000000" stroke-width="1" fill="none"></path></g><g transform="translate(0 0) rotate(0 121.5 35)"><text x="121.5" y="25" font-family="Virgil, Segoe UI Emoji" font-size="28px" fill="#000000" text-anchor="middle" style="white-space: pre;" direction="ltr">Application</text><text x="121.5" y="60" font-family="Virgil, Segoe UI Emoji" font-size="28px" fill="#000000" text-anchor="middle" style="white-space: pre;" direction="ltr">Load Balancer</text></g><g stroke-linecap="round"><g transform="translate(0 0) rotate(0 -74.97651863348148 -0.609946469856169)"><path d="M-0.27 0.74 C-25.46 0.59, -125.69 -1.59, -150.61 -1.96 M1.79 0.08 C-23.63 0.14, -126.4 -0.89, -151.74 -0.98" stroke="#000000" stroke-width="4" fill="none"></path></g></g><g stroke-linecap="round"><g transform="translate(0 0) rotate(0 -0.32251634345391267 66.55074839716383)"><path d="M-0.77 -0.14 C-0.78 22.13, -0.5 110.81, -0.47 133.17 M1.02 -1.25 C0.86 21.2, -1.21 111.56, -1.66 134.36" stroke="#000000" stroke-width="4" fill="none"></path></g><g transform="translate(0 0) rotate(0 -0.32251634345391267 66.55074839716383)"><path d="M-11.55 105.17 C-10.03 112.44, -6 120.38, -2.04 135.23 M-11.19 106.89 C-10.05 112.23, -7.43 117.29, -1.71 134.55" stroke="#000000" stroke-width="4" fill="none"></path></g><g transform="translate(0 0) rotate(0 -0.32251634345391267 66.55074839716383)"><path d="M8.97 105.61 C5.11 112.63, 3.76 120.46, -2.04 135.23 M9.33 107.32 C6.18 112.4, 4.52 117.37, -1.71 134.55" stroke="#000000" stroke-width="4" fill="none"></path></g></g><g stroke-linecap="round"><g transform="translate(0 0) rotate(0 -54.745544197318566 -0.7074840493544912)"><path d="M-0.38 -0.29 C-18.67 -0.14, -91.78 0.06, -110.21 0.3 M1.62 -1.49 C-16.78 -1.66, -92.16 -1.81, -111.11 -1.66" stroke="#000000" stroke-width="4" fill="none"></path></g><g transform="translate(0 0) rotate(0 -54.745544197318566 -0.7074840493544912)"><path d="M-83.43 -11.85 C-89.9 -10.48, -95.91 -6.17, -112.74 -1.74 M-83.37 -12.53 C-89.54 -9.14, -95.68 -6.82, -110.21 -1.55" stroke="#000000" stroke-width="4" fill="none"></path></g><g transform="translate(0 0) rotate(0 -54.745544197318566 -0.7074840493544912)"><path d="M-83.39 8.68 C-89.76 4.65, -95.78 3.55, -112.74 -1.74 M-83.33 7.99 C-89.61 6.73, -95.76 4.42, -110.21 -1.55" stroke="#000000" stroke-width="4" fill="none"></path></g></g><g stroke-linecap="round"><g transform="translate(0 0) rotate(0 -53.69250788251662 0.4184146842453629)"><path d="M0.55 0.13 C-17.38 0.25, -89.13 -0.02, -106.82 0.1 M-0.62 -0.85 C-18.8 -0.47, -90.4 1.72, -107.94 1.69" stroke="#000000" stroke-width="4" fill="none"></path></g><g transform="translate(0 0) rotate(0 -53.69250788251662 0.4184146842453629)"><path d="M-79.71 -9.6 C-89.98 -3.5, -98.86 -0.56, -107.21 -0.13 M-79.72 -9.62 C-87.76 -5.24, -94.84 -3.2, -108.16 2.66" stroke="#000000" stroke-width="4" fill="none"></path></g><g transform="translate(0 0) rotate(0 -53.69250788251662 0.4184146842453629)"><path d="M-79.37 10.92 C-89.65 9.57, -98.66 5.07, -107.21 -0.13 M-79.37 10.89 C-87.45 9.83, -94.62 6.4, -108.16 2.66" stroke="#000000" stroke-width="4" fill="none"></path></g></g><g stroke-linecap="round"><g transform="translate(0 0) rotate(0 -63.57398175573741 -12.81215812879799)"><path d="M0.76 -0.56 C-20.4 -5.04, -106.57 -21.42, -127.9 -25.86 M-0.31 1.76 C-20.99 -3.11, -104.31 -22.76, -125.61 -27.38" stroke="#000000" stroke-width="4" fill="none"></path></g><g transform="translate(0 0) rotate(0 -63.57398175573741 -12.81215812879799)"><path d="M-96.78 -32.46 C-100.39 -30.35, -109.07 -27.89, -127.08 -28.61 M-95.65 -30.76 C-106.33 -29.65, -115.14 -29.65, -126.33 -26.57" stroke="#000000" stroke-width="4" fill="none"></path></g><g transform="translate(0 0) rotate(0 -63.57398175573741 -12.81215812879799)"><path d="M-101.34 -12.45 C-104.13 -14.72, -111.81 -16.61, -127.08 -28.61 M-100.21 -10.75 C-109.42 -16, -116.78 -22.39, -126.33 -26.57" stroke="#000000" stroke-width="4" fill="none"></path></g></g><g stroke-linecap="round"><g transform="translate(0 0) rotate(0 0.07452850169971725 -100.19391304479257)"><path d="M1.12 -0.76 C0.97 -34.15, 0.07 -166.72, -0.02 -200 M0.26 1.45 C-0.14 -32.32, -0.95 -168.42, -0.98 -201.84" stroke="#000000" stroke-width="4" fill="none"></path></g><g transform="translate(0 0) rotate(0 0.07452850169971725 -100.19391304479257)"><path d="M8.12 -173.72 C6.33 -183.24, 1.69 -194.93, -0.45 -200.86 M10.23 -174.17 C5.64 -182.5, 3.04 -188.38, -0.74 -202.4" stroke="#000000" stroke-width="4" fill="none"></path></g><g transform="translate(0 0) rotate(0 0.07452850169971725 -100.19391304479257)"><path d="M-12.4 -173.64 C-6.46 -183.38, -3.38 -195.11, -0.45 -200.86 M-10.29 -174.09 C-9.23 -182.32, -6.18 -188.23, -0.74 -202.4" stroke="#000000" stroke-width="4" fill="none"></path></g></g><g stroke-linecap="round"><g transform="translate(0 0) rotate(0 61.49537324633519 17.091679829363727)"><path d="M0.62 0.79 C21.15 6.27, 103.14 28.85, 123.5 34.03 M-0.51 0.15 C19.81 5.84, 101.5 27.04, 122.45 32.45" stroke="#000000" stroke-width="4" fill="none"></path></g><g transform="translate(0 0) rotate(0 61.49537324633519 17.091679829363727)"><path d="M93.9 34.98 C104.13 32.64, 110.39 32.92, 124.45 33.88 M91.64 34.48 C100.49 33.95, 110.43 32.83, 123 33.32" stroke="#000000" stroke-width="4" fill="none"></path></g><g transform="translate(0 0) rotate(0 61.49537324633519 17.091679829363727)"><path d="M99.05 15.11 C107.76 19.36, 112.32 26.19, 124.45 33.88 M96.8 14.61 C104.24 19.86, 112.68 24.53, 123 33.32" stroke="#000000" stroke-width="4" fill="none"></path></g></g><g stroke-linecap="round"><g transform="translate(0 0) rotate(0 0.24262787019222287 44.20952604484745)"><path d="M-0.92 0.3 C-1.22 14.83, -0.76 73.14, -0.79 87.92 M0.79 -0.59 C0.79 14.01, 1.43 73.85, 1.51 89.01" stroke="#000000" stroke-width="2" fill="none"></path></g><g transform="translate(0 0) rotate(0 0.24262787019222287 44.20952604484745)"><path d="M-8.48 59.59 C-6.2 69.96, -0.46 82.18, 3.39 88.02 M-9.59 61.88 C-5.66 66.73, -5.36 72.56, 2.24 88.93" stroke="#000000" stroke-width="2" fill="none"></path></g><g transform="translate(0 0) rotate(0 0.24262787019222287 44.20952604484745)"><path d="M12.04 59.42 C6.44 69.7, 4.31 81.98, 3.39 88.02 M10.93 61.71 C10.42 66.48, 6.27 72.35, 2.24 88.93" stroke="#000000" stroke-width="2" fill="none"></path></g></g><g stroke-linecap="round"><g transform="translate(0 0) rotate(0 0.6020635366006672 -62.62803348764308)"><path d="M1.13 0.25 C1.25 -20.4, 1.03 -102.89, 0.69 -123.58 M0.26 -0.67 C0.29 -21.72, -0.11 -105.19, 0.11 -125.5" stroke="#000000" stroke-width="2" fill="none"></path></g><g transform="translate(0 0) rotate(0 0.6020635366006672 -62.62803348764308)"><path d="M10.73 -96.14 C7.82 -107.07, 4.23 -113.2, -1.41 -125.39 M11.23 -97.61 C8.54 -105.2, 5.65 -112.12, 0.8 -125.85" stroke="#000000" stroke-width="2" fill="none"></path></g><g transform="translate(0 0) rotate(0 0.6020635366006672 -62.62803348764308)"><path d="M-9.79 -96.18 C-6.59 -107.29, -4.06 -113.41, -1.41 -125.39 M-9.29 -97.64 C-6.91 -105.09, -4.72 -112, 0.8 -125.85" stroke="#000000" stroke-width="2" fill="none"></path></g></g><g transform="translate(0 0) rotate(0 109.5 12.5)"><text x="0" y="18" font-family="Virgil, Segoe UI Emoji" font-size="20px" fill="#000000" text-anchor="start" style="white-space: pre;" direction="ltr">Amazon EC2 Instance</text></g><g stroke-linecap="round"><g transform="translate(0 0) rotate(0 -0.051567596630206936 -61.99880555772356)"><path d="M0.11 0.82 C0.12 -19.95, 1.25 -103.75, 1.19 -124.82 M-1.29 0.2 C-1.44 -20.38, 0.84 -102.64, 0.87 -123.48" stroke="#000000" stroke-width="4" fill="none"></path></g><g transform="translate(0 0) rotate(0 -0.051567596630206936 -61.99880555772356)"><path d="M12.05 -93.14 C6.21 -106.69, 1.08 -116.42, -0.56 -122.8 M9.91 -95.96 C6.89 -106.1, 3.41 -116.03, 1.37 -124.36" stroke="#000000" stroke-width="4" fill="none"></path></g><g transform="translate(0 0) rotate(0 -0.051567596630206936 -61.99880555772356)"><path d="M-8.47 -93.47 C-6.2 -106.91, -3.22 -116.51, -0.56 -122.8 M-10.61 -96.29 C-5.85 -106.23, -1.55 -116.03, 1.37 -124.36" stroke="#000000" stroke-width="4" fill="none"></path></g></g><g stroke-linecap="round"><g transform="translate(0 0) rotate(0 135.56268450943037 0.7987199774843248)"><path d="M0.23 0.41 C45.64 0.63, 227.12 0.65, 272.23 0.49 M-1.1 -0.42 C44.26 0.08, 226.71 1.91, 271.89 2.02" stroke="#000000" stroke-width="2" fill="none"></path></g></g><g stroke-linecap="round"><g transform="translate(0 0) rotate(0 -0.3916117076436194 -71.41809467809873)"><path d="M-0.18 0.81 C0.16 -22.86, 1 -118.01, 0.95 -141.89 M-1.74 0.19 C-1.37 -23.84, 0.46 -120.11, 0.51 -143.64" stroke="#000000" stroke-width="2" fill="none"></path></g><g transform="translate(0 0) rotate(0 -0.3916117076436194 -71.41809467809873)"><path d="M11.78 -113.74 C9.51 -121.99, 6.54 -125.94, -1.27 -143.95 M9.88 -114.41 C6.08 -126.3, 2.77 -136.02, -0.07 -143.44" stroke="#000000" stroke-width="2" fill="none"></path></g><g transform="translate(0 0) rotate(0 -0.3916117076436194 -71.41809467809873)"><path d="M-8.74 -113.99 C-6.76 -122.15, -5.48 -126.05, -1.27 -143.95 M-10.64 -114.66 C-7.15 -126.53, -3.19 -136.16, -0.07 -143.44" stroke="#000000" stroke-width="2" fill="none"></path></g></g><g stroke-linecap="round"><g transform="translate(0 0) rotate(0 0.7356151096522581 107.80657925850579)"><path d="M0.83 -0.67 C0.76 35.2, 0.74 180.12, 0.64 216.28" stroke="#000000" stroke-width="2.5" fill="none" stroke-dasharray="8 10"></path></g></g><g stroke-linecap="round"><g transform="translate(0 0) rotate(0 -47.920511546335774 -0.5338750806357666)"><path d="M-0.48 -0.17 C-16.51 -0.12, -80.49 -1.08, -96.65 -0.86 M1.46 -1.3 C-14.63 -1.03, -80.67 0.1, -97.3 0.23" stroke="#000000" stroke-width="2" fill="none"></path></g><g transform="translate(0 0) rotate(0 -47.920511546335774 -0.5338750806357666)"><path d="M-69.53 -9.48 C-78.02 -8.18, -81.83 -4.31, -95.48 -0.29 M-69.76 -9.74 C-78.81 -6.68, -88.76 -1.9, -96.95 1.09" stroke="#000000" stroke-width="2" fill="none"></path></g><g transform="translate(0 0) rotate(0 -47.920511546335774 -0.5338750806357666)"><path d="M-69.26 11.04 C-77.63 7.04, -81.51 5.62, -95.48 -0.29 M-69.49 10.78 C-78.64 6.6, -88.68 4.14, -96.95 1.09" stroke="#000000" stroke-width="2" fill="none"></path></g></g><g stroke-linecap="round"><g transform="translate(0 0) rotate(0 0.22129280286458197 -238.90938792643806)"><path d="M0.99 -0.18 C1 -79.7, -0.7 -398.44, -0.91 -477.64 M0.05 -1.32 C0.52 -80.69, 1.53 -397.4, 1.33 -476.69" stroke="#000000" stroke-width="2" fill="none"></path></g></g><g stroke-linecap="round"><g transform="translate(0 0) rotate(0 -37.46486707830479 -0.1421722530527063)"><path d="M-0.92 -0.69 C-13.47 -0.85, -62.59 0.1, -74.89 -0.13 M0.79 1.57 C-11.92 0.99, -63.04 -1.36, -75.72 -1.85" stroke="#000000" stroke-width="2" fill="none"></path></g><g transform="translate(0 0) rotate(0 -37.46486707830479 -0.1421722530527063)"><path d="M-48.26 -10.51 C-55.25 -7.47, -67.99 -6.41, -77.7 -3.33 M-46.13 -9.98 C-57.33 -8.58, -65.41 -3.9, -76.02 -2.83" stroke="#000000" stroke-width="2" fill="none"></path></g><g transform="translate(0 0) rotate(0 -37.46486707830479 -0.1421722530527063)"><path d="M-49.14 9.99 C-55.98 6.26, -68.43 0.53, -77.7 -3.33 M-47.01 10.52 C-57.91 5.14, -65.7 3.03, -76.02 -2.83" stroke="#000000" stroke-width="2" fill="none"></path></g></g><g stroke-linecap="round"><g transform="translate(0 0) rotate(0 44.83217143532556 -0.187348390663999)"><path d="M0.45 0.99 C15.08 0.92, 73.37 0.72, 88.16 0.49 M-0.77 0.47 C14.2 -0.05, 75.55 -1.42, 90.44 -1.37" stroke="#000000" stroke-width="2" fill="none"></path></g><g transform="translate(0 0) rotate(0 44.83217143532556 -0.187348390663999)"><path d="M64.03 7.86 C72.42 5.97, 80.34 2.59, 90.57 0.13 M62.23 8.61 C68.46 6.67, 75.35 3.75, 90.37 -1.84" stroke="#000000" stroke-width="2" fill="none"></path></g><g transform="translate(0 0) rotate(0 44.83217143532556 -0.187348390663999)"><path d="M63.79 -12.66 C72.42 -7.75, 80.42 -4.32, 90.57 0.13 M61.99 -11.9 C68.39 -9.26, 75.33 -7.57, 90.37 -1.84" stroke="#000000" stroke-width="2" fill="none"></path></g></g></svg>